<?xml version="1.0" encoding="UTF-8" standalone="no"?>
<svg
   xmlns:dc="http://purl.org/dc/elements/1.1/"
   xmlns:cc="http://creativecommons.org/ns#"
   xmlns:rdf="http://www.w3.org/1999/02/22-rdf-syntax-ns#"
   xmlns:svg="http://www.w3.org/2000/svg"
   xmlns="http://www.w3.org/2000/svg"
   width="480"
   height="360"
   viewBox="0 0 480 360.00001"
   id="svg6652"
   version="1.1">
  <defs
     id="defs6654" />
  <metadata
     id="metadata6657">
    <rdf:RDF>
      <cc:Work
         rdf:about="">
        <dc:format>image/svg+xml</dc:format>
        <dc:type
           rdf:resource="http://purl.org/dc/dcmitype/StillImage" />
        <dc:title></dc:title>
      </cc:Work>
    </rdf:RDF>
  </metadata>
  <rect
     y="0"
     x="0"
     height="360"
     width="480"
     id="rect4141"
     style="opacity:1;fill:#241c1c;fill-opacity:1;stroke:none;stroke-width:4;stroke-linecap:round;stroke-linejoin:round;stroke-miterlimit:4;stroke-dasharray:none;stroke-dashoffset:0;stroke-opacity:1" />
  <g
     transform="translate(-1.063432,-14.264237)"
     id="g4164">
    <g
       transform="matrix(0.77419355,0,0,0.77419355,137.1003,-303.2646)"
       id="layer1">
      <path
         style="fill:#ff841a;fill-opacity:1;stroke:none"
         d="m 234.28571,551.64792 c 0,55.2286 -44.77156,100 -100,100 -55.228436,0 -99.999996,-44.7714 -99.999996,-100 0,-55.2284 44.77156,-100 99.999996,-100 55.22844,0 100,44.7716 100,100 z"
         id="path7973" />
      <path
         d="m 134.28465,476.64782 c 41.42098,0 75.00105,33.5811 75.00105,74.9999 0,41.4217 -33.58007,75.0003 -75.00105,75.0003 -41.419376,0 -74.998946,-33.5786 -74.998946,-75.0003 0,-41.4188 33.57957,-74.9999 74.998946,-74.9999"
         style="fill:#ffffff;fill-opacity:1;fill-rule:evenodd;stroke:none"
         id="path7998" />
      <path
         d="m 134.28494,502.89782 c 26.92414,0 48.75082,21.825 48.75082,48.7493 0,26.9236 -21.82668,48.7508 -48.75082,48.7508 -26.92262,0 -48.749286,-21.8272 -48.749286,-48.7508 0,-26.9243 21.826666,-48.7493 48.749286,-48.7493"
         style="fill:#a1b3b3;fill-opacity:1;fill-rule:evenodd;stroke:none"
         id="path8002" />
      <g
         transform="matrix(-1,0,0,1,-78.390956,-4026.7777)"
         id="g6633">
        <path
           id="path8004"
           style="fill:#241c1c;fill-opacity:1;fill-rule:evenodd;stroke:none;stroke-width:0.82395929;stroke-linecap:butt;stroke-linejoin:miter;stroke-miterlimit:22.92558479;stroke-dasharray:none;stroke-opacity:1"
           d="m -212.9869,4554.2039 c 13.54846,0 24.53053,10.984 24.53053,24.5306 0,13.5467 -10.98207,24.5307 -24.53053,24.5307 -13.54616,0 -24.52823,-10.984 -24.52823,-24.5307 0,-13.5466 10.98207,-24.5306 24.52823,-24.5306 z" />
        <path
           id="path8006"
           style="fill:#ffffff;fill-opacity:1;fill-rule:evenodd;stroke:none"
           d="m -225.25064,4554.2039 c 6.77385,0 12.26374,5.4909 12.26374,12.2649 0,6.7749 -5.48989,12.2657 -12.26374,12.2657 -6.7746,0 -12.26449,-5.4908 -12.26449,-12.2657 0,-6.774 5.48989,-12.2649 12.26449,-12.2649" />
      </g>
      <path
         id="path6627"
         d="m 88.712644,626.64792 0,21.7798 c -0.45356,0.434 -0.8685,0.8961 -1.28173,1.3885 l -29.30145,34.8922 c -6.08582,7.2529 -5.15309,18.0186 2.0996,24.1044 7.25272,6.0858 17.98341,5.1164 24.06922,-2.1362 l 4.41436,-5.2704 0,8.9722 0,22.7874 0,11.3923 c 0,9.4677 7.62207,17.0898 17.089846,17.0898 9.46777,0 17.08984,-7.6221 17.08984,-17.0898 l 0,-11.3923 22.78595,0 0,11.3923 c 0,9.4677 7.62207,17.0898 17.08984,17.0898 9.46778,0 17.08985,-7.6221 17.08985,-17.0898 l 0,-11.3923 0,-22.7874 0,-8.9722 4.41589,5.2704 c 6.0858,7.2526 16.81498,8.222 24.06769,2.1362 7.2527,-6.0858 8.18672,-16.8515 2.10113,-24.1044 l -29.30298,-34.8922 c -0.41323,-0.4924 -0.82806,-0.9545 -1.28173,-1.3885 l 0,-21.7798 z"
         style="fill:#ff841a;fill-opacity:1;stroke:none" />
    </g>
    <g
       style="font-style:normal;font-variant:normal;font-weight:normal;font-stretch:normal;font-size:40px;line-height:125%;font-family:'Fredoka One';-inkscape-font-specification:'Fredoka One';letter-spacing:0px;word-spacing:0px;fill:#ffffff;fill-opacity:1;stroke:none;stroke-width:1px;stroke-linecap:butt;stroke-linejoin:miter;stroke-opacity:1"
       id="text4143"
       transform="translate(92.157899,287.66949)">
      <path
         d="m 86.290846,30.540678 q 1.04,2.12 1.04,4.72 0,2.6 -1.04,4.72 -1.04,2.08 -2.68,3.32 -3.32,2.56 -6.88,2.56 l -5,0 0,4.52 q 0,0.92 -0.08,1.4 -0.04,0.44 -0.36,1.04 -0.56,1.08 -3.12,1.08 -2.8,0 -3.28,-1.48 -0.24,-0.68 -0.24,-2.08 l 0,-22.2 q 0,-0.92 0.04,-1.36 0.08,-0.48 0.4,-1.08 0.56,-1.08 3.12,-1.08 l 8.56,0 q 3.52,0 6.84,2.56 1.64,1.24 2.68,3.36 z m -9.52,8.24 q 1.2,0 2.36,-0.88 1.16,-0.88 1.16,-2.64 0,-1.76 -1.16,-2.64 -1.16,-0.92 -2.4,-0.92 l -5,0 0,7.08 5.04,0 z"
         id="path4148" />
      <path
         d="m 89.363346,43.420678 q 0,-4.8 3.36,-7.92 3.36,-3.12 7.680004,-3.12 4.32,0 7.64,3.12 3.32,3.08 3.32,7.88 0,3.32 -1.72,5.92 -1.72,2.56 -4.2,3.8 -2.44,1.2 -5.08,1.2 -2.640004,0 -5.120004,-1.28 -2.48,-1.32 -4.2,-3.84 -1.68,-2.56 -1.68,-5.76 z m 8.36,2.88 q 1.28,0.96 2.600004,0.96 1.32,0 2.64,-1 1.32,-1 1.32,-2.96 0,-1.96 -1.24,-2.92 -1.24,-0.96 -2.68,-0.96 -1.440004,0 -2.680004,1 -1.24,1 -1.24,2.96 0,1.92 1.28,2.92 z"
         id="path4150" />
      <path
         d="m 113.94772,26.460678 q 0,-0.92 0.04,-1.36 0.08,-0.48 0.36,-1.08 0.56,-1.08 3.12,-1.08 2.44,0 3.04,1.08 0.32,0.6 0.36,1.08 0.08,0.48 0.08,1.4 l 0,18.52 q 0,1.44 0.24,1.84 0.24,0.36 1.04,0.36 0.84,0 1.12,0.08 0.28,0.04 0.68,0.32 0.8,0.52 0.8,2.84 0,2.52 -0.8,3.08 -1.04,0.72 -4.96,0.24 -3.08,-0.4 -4,-2.04 -1.12,-1.96 -1.12,-6.24 l 0,-19.04 z"
         id="path4152" />
      <path
         d="m 126.9946,36.380678 q 0,-0.92 0.04,-1.36 0.08,-0.48 0.36,-1.08 0.56,-1.04 3.12,-1.04 1.92,0 2.72,0.68 0.68,0.56 0.72,1.72 0.04,0.4 0.04,1.16 l 0,14 q 0,0.92 -0.08,1.4 -0.04,0.44 -0.36,1.04 -0.52,1.04 -3.08,1.04 -2.52,0 -3.08,-1.08 -0.28,-0.6 -0.36,-1.04 -0.04,-0.44 -0.04,-1.4 l 0,-14.04 z m 6.56,-7.4 q -0.28,0.56 -1.04,0.8 -0.76,0.24 -2.04,0.24 -1.24,0 -2,-0.24 -0.76,-0.24 -1.08,-0.84 -0.28,-0.6 -0.36,-1.04 -0.04,-0.48 -0.04,-1.4 0,-0.92 0.04,-1.36 0.08,-0.48 0.36,-1.04 0.56,-1.08 3.12,-1.08 2.52,0 3.04,1.08 0.32,0.6 0.36,1.08 0.08,0.44 0.08,1.36 0,0.92 -0.08,1.4 -0.04,0.44 -0.36,1.04 z"
         id="path4154" />
      <path
         d="m 149.54897,32.900678 q 2.76,0 3.24,1.52 0.24,0.76 0.24,2 0,1.24 -0.28,2 -0.24,0.72 -0.8,1.04 -0.84,0.48 -2.44,0.48 l -2.56,-0.16 0,10.72 q 0,1.52 -0.4,2.28 -0.36,0.72 -1.16,0.96 -0.76,0.24 -2,0.24 -1.24,0 -2,-0.24 -0.72,-0.28 -1.04,-0.84 -0.32,-0.6 -0.4,-1.08 -0.04,-0.48 -0.04,-1.4 l 0,-10.6 -1.44,0 q -1.04,-0.08 -1.48,-0.48 -0.76,-0.76 -0.76,-2.92 0,-3.28 2.36,-3.28 l 1.32,0 0,-2.12 q 0,-3.08 2.2,-5.56 2.2,-2.52 6.36,-2.52 0.92,0 1.36,0.08 0.48,0.04 1.08,0.36 1.08,0.52 1.08,3.08 0,1.92 -0.68,2.76 -0.56,0.64 -1.76,0.72 -0.36,0 -1.12,0 -1.48,0 -1.48,1 l 0,2.2 2.6,-0.24 z"
         id="path4156" />
      <path
         d="m 175.1271,40.900678 q 0,2.44 -1.24,3.64 -1.2,1.16 -2.68,1.16 l -9.48,0 q 0,1.12 1.32,1.88 1.32,0.76 2.64,0.76 2.32,0 3.64,-0.48 l 0.44,-0.16 q 0.96,-0.44 1.6,-0.44 1.28,0 2.2,1.8 0.52,1.08 0.52,1.84 0,3.56 -8.52,3.56 -2.96,0 -5.28,-1 -2.28,-1.04 -3.56,-2.72 -2.52,-3.24 -2.52,-7.24 0,-5.04 3.24,-8.04 3.28,-3.04 8.16,-3.04 5.56,0 8.16,3.92 1.36,2.08 1.36,4.56 z m -8.44,1.16 q 1.52,0 1.52,-1.28 0,-0.92 -0.72,-1.48 -0.68,-0.56 -2,-0.56 -1.28,0 -2.56,1.08 -1.28,1.04 -1.28,2.24 l 5.04,0 z"
         id="path4158" />
      <path
         d="m 184.57772,35.660678 q 1.88,-2.84 4.52,-2.84 4.08,0 6.08,3.48 0.44,-0.6 1.04,-1.24 0.64,-0.68 2,-1.44 1.36,-0.8 2.8,-0.8 3.2,0 5.36,2.48 2.16,2.44 2.16,8.12 l 0,7 q 0,0.92 -0.08,1.4 -0.04,0.44 -0.36,1.04 -0.52,1.08 -3.08,1.08 -2.52,0 -3.08,-1.12 -0.28,-0.6 -0.36,-1.04 -0.04,-0.48 -0.04,-1.4 l 0,-7 q 0,-3.48 -2.48,-3.48 -1.4,0 -1.92,0.92 -0.48,0.92 -0.48,2.6 l 0,7 q 0,0.96 -0.08,1.4 -0.04,0.44 -0.36,1.04 -0.56,1.08 -3.12,1.08 -2.52,0 -3.08,-1.12 -0.28,-0.6 -0.36,-1.04 -0.04,-0.48 -0.04,-1.4 l 0,-7 q 0,-3.48 -2.48,-3.48 -2.4,0 -2.4,3.48 l 0,7.08 q 0,0.92 -0.08,1.4 -0.04,0.44 -0.36,1.04 -0.6,1.04 -3.12,1.04 -2.52,0 -3.08,-1.08 -0.28,-0.6 -0.36,-1.04 -0.04,-0.44 -0.04,-1.4 l 0,-14.08 q 0,-0.92 0.04,-1.36 0.08,-0.48 0.4,-1.04 0.6,-1.08 2.84,-1.08 2.24,0 2.92,0.72 0.68,0.72 0.68,2.08 z"
         id="path4160" />
      <path
         d="m 211.16022,43.420678 q 0,-4.8 3.36,-7.92 3.36,-3.12 7.68,-3.12 4.32,0 7.64,3.12 3.32,3.08 3.32,7.88 0,3.32 -1.72,5.92 -1.72,2.56 -4.2,3.8 -2.44,1.2 -5.08,1.2 -2.64,0 -5.12,-1.28 -2.48,-1.32 -4.2,-3.84 -1.68,-2.56 -1.68,-5.76 z m 8.36,2.88 q 1.28,0.96 2.6,0.96 1.32,0 2.64,-1 1.32,-1 1.32,-2.96 0,-1.96 -1.24,-2.92 -1.24,-0.96 -2.68,-0.96 -1.44,0 -2.68,1 -1.24,1 -1.24,2.96 0,1.92 1.28,2.92 z"
         id="path4162" />
    </g>
  </g>
</svg>
