<?xml version="1.0" encoding="UTF-8" standalone="no"?>
<svg
   xmlns:dc="http://purl.org/dc/elements/1.1/"
   xmlns:cc="http://creativecommons.org/ns#"
   xmlns:rdf="http://www.w3.org/1999/02/22-rdf-syntax-ns#"
   xmlns:svg="http://www.w3.org/2000/svg"
   xmlns="http://www.w3.org/2000/svg"
   version="1.1"
   id="svg7650"
   viewBox="0 0 99.999997 99.999997"
   height="28.222221mm"
   width="28.222221mm">
  <defs
     id="defs7652" />
  <metadata
     id="metadata7655">
    <rdf:RDF>
      <cc:Work
         rdf:about="">
        <dc:format>image/svg+xml</dc:format>
        <dc:type
           rdf:resource="http://purl.org/dc/dcmitype/StillImage" />
        <dc:title></dc:title>
      </cc:Work>
    </rdf:RDF>
  </metadata>
  <path
     id="rect4218-1"
     d="m 42.187499,12.499998 c -1.4427,0 -2.60416,1.16146 -2.60416,2.60417 l 0,7.8125 -20.83334,0 0,10.41666 62.499999,0 0,-10.41666 -20.833329,0 0,-7.29167 c 0,-0.0891 -0.0178,-0.17364 -0.0265,-0.26042 0.009,-0.0868 0.0265,-0.17128 0.0265,-0.26041 0,-1.44271 -1.16146,-2.60417 -2.60417,-2.60417 l -15.625,0 z m 2.60417,5.20833 10.41667,0 0,5.20834 -10.41667,0 0,-5.20834 z m -20.83333,17.70834 0,5.20833 0,5.20833 0,36.45834 c 0,2.88542 2.3229,5.20833 5.20833,5.20833 l 41.66667,0 c 2.885419,0 5.208329,-2.32291 5.208329,-5.20833 l 0,-36.45834 0,-5.20833 0,-5.20833 -5.208329,0 -41.66667,0 -5.20833,0 z"
     style="opacity:1;fill:#ffffff;fill-opacity:1;stroke:none;stroke-width:4;stroke-linecap:round;stroke-linejoin:round;stroke-miterlimit:4;stroke-dasharray:none;stroke-dashoffset:0;stroke-opacity:1" />
</svg>
