<?xml version="1.0" encoding="UTF-8" standalone="no"?>
<svg
   xmlns:dc="http://purl.org/dc/elements/1.1/"
   xmlns:cc="http://creativecommons.org/ns#"
   xmlns:rdf="http://www.w3.org/1999/02/22-rdf-syntax-ns#"
   xmlns:svg="http://www.w3.org/2000/svg"
   xmlns="http://www.w3.org/2000/svg"
   version="1.1"
   id="svg6652"
   viewBox="0 0 200 310.00001"
   height="310"
   width="200">
  <defs
     id="defs6654" />
  <metadata
     id="metadata6657">
    <rdf:RDF>
      <cc:Work
         rdf:about="">
        <dc:format>image/svg+xml</dc:format>
        <dc:type
           rdf:resource="http://purl.org/dc/dcmitype/StillImage" />
        <dc:title></dc:title>
      </cc:Work>
    </rdf:RDF>
  </metadata>
  <g
     transform="translate(-34.285714,-451.64792)"
     id="layer1">
    <path
       style="fill:#ff841a;fill-opacity:1;stroke:none"
       d="m 234.28571,551.64792 c 0,55.2286 -44.77156,100 -100,100 -55.228436,0 -99.999996,-44.7714 -99.999996,-100 0,-55.2284 44.77156,-100 99.999996,-100 55.22844,0 100,44.7716 100,100 z"
       id="path7973" />
    <path
       d="m 134.28465,476.64782 c 41.42098,0 75.00105,33.5811 75.00105,74.9999 0,41.4217 -33.58007,75.0003 -75.00105,75.0003 -41.419376,0 -74.998946,-33.5786 -74.998946,-75.0003 0,-41.4188 33.57957,-74.9999 74.998946,-74.9999"
       style="fill:#ffffff;fill-opacity:1;fill-rule:evenodd;stroke:none"
       id="path7998" />
    <path
       d="m 134.28494,502.89782 c 26.92414,0 48.75082,21.825 48.75082,48.7493 0,26.9236 -21.82668,48.7508 -48.75082,48.7508 -26.92262,0 -48.749286,-21.8272 -48.749286,-48.7508 0,-26.9243 21.826666,-48.7493 48.749286,-48.7493"
       style="fill:#a1b3b3;fill-opacity:1;fill-rule:evenodd;stroke:none"
       id="path8002" />
    <g
       transform="matrix(-1,0,0,1,-78.390956,-4026.7777)"
       id="g6633">
      <path
         id="path8004"
         style="fill:#241c1c;fill-opacity:1;fill-rule:evenodd;stroke:none;stroke-width:0.82395929;stroke-linecap:butt;stroke-linejoin:miter;stroke-miterlimit:22.92558479;stroke-dasharray:none;stroke-opacity:1"
         d="m -212.9869,4554.2039 c 13.54846,0 24.53053,10.984 24.53053,24.5306 0,13.5467 -10.98207,24.5307 -24.53053,24.5307 -13.54616,0 -24.52823,-10.984 -24.52823,-24.5307 0,-13.5466 10.98207,-24.5306 24.52823,-24.5306 z" />
      <path
         id="path8006"
         style="fill:#ffffff;fill-opacity:1;fill-rule:evenodd;stroke:none"
         d="m -225.25064,4554.2039 c 6.77385,0 12.26374,5.4909 12.26374,12.2649 0,6.7749 -5.48989,12.2657 -12.26374,12.2657 -6.7746,0 -12.26449,-5.4908 -12.26449,-12.2657 0,-6.774 5.48989,-12.2649 12.26449,-12.2649" />
    </g>
    <path
       id="path6627"
       d="m 88.712644,626.64792 0,21.7798 c -0.45356,0.434 -0.8685,0.8961 -1.28173,1.3885 l -29.30145,34.8922 c -6.08582,7.2529 -5.15309,18.0186 2.0996,24.1044 7.25272,6.0858 17.98341,5.1164 24.06922,-2.1362 l 4.41436,-5.2704 0,8.9722 0,22.7874 0,11.3923 c 0,9.4677 7.62207,17.0898 17.089846,17.0898 9.46777,0 17.08984,-7.6221 17.08984,-17.0898 l 0,-11.3923 22.78595,0 0,11.3923 c 0,9.4677 7.62207,17.0898 17.08984,17.0898 9.46778,0 17.08985,-7.6221 17.08985,-17.0898 l 0,-11.3923 0,-22.7874 0,-8.9722 4.41589,5.2704 c 6.0858,7.2526 16.81498,8.222 24.06769,2.1362 7.2527,-6.0858 8.18672,-16.8515 2.10113,-24.1044 l -29.30298,-34.8922 c -0.41323,-0.4924 -0.82806,-0.9545 -1.28173,-1.3885 l 0,-21.7798 z"
       style="fill:#ff841a;fill-opacity:1;stroke:none" />
  </g>
</svg>
