<?xml version="1.0" encoding="UTF-8" standalone="no"?>
<svg
   xmlns:dc="http://purl.org/dc/elements/1.1/"
   xmlns:cc="http://creativecommons.org/ns#"
   xmlns:rdf="http://www.w3.org/1999/02/22-rdf-syntax-ns#"
   xmlns:svg="http://www.w3.org/2000/svg"
   xmlns="http://www.w3.org/2000/svg"
   version="1.1"
   id="svg7650"
   viewBox="0 0 99.999997 99.999997"
   height="28.222221mm"
   width="28.222221mm">
  <defs
     id="defs7652" />
  <metadata
     id="metadata7655">
    <rdf:RDF>
      <cc:Work
         rdf:about="">
        <dc:format>image/svg+xml</dc:format>
        <dc:type
           rdf:resource="http://purl.org/dc/dcmitype/StillImage" />
        <dc:title></dc:title>
      </cc:Work>
    </rdf:RDF>
  </metadata>
  <path
     style="fill:#ffffff;fill-opacity:1;fill-rule:nonzero;stroke:none"
     d="M 43.75 12.5 L 43.75 50 L 56.25 50 L 56.25 12.5 L 43.75 12.5 z M 23.486328 22.5 L 23.484375 22.501953 C 16.163035 29.936533 12.501953 39.680228 12.501953 49.423828 C 12.501953 59.167938 16.163035 68.911123 23.484375 76.345703 L 23.486328 76.347656 C 30.808398 83.781756 40.405833 87.5 50.001953 87.5 C 59.598053 87.5 69.195498 83.781776 76.517578 76.347656 L 76.517578 76.345703 C 83.838938 68.911123 87.501953 59.167938 87.501953 49.423828 C 87.501953 39.680228 83.838938 29.936533 76.517578 22.501953 L 68.941406 30.193359 L 68.943359 30.193359 C 74.171179 35.502659 76.787109 42.463988 76.787109 49.423828 C 76.787109 56.384408 74.171179 63.344997 68.943359 68.654297 L 68.941406 68.65625 L 68.941406 68.658203 C 63.712106 73.966763 56.856773 76.621094 50.001953 76.621094 C 43.146873 76.621094 36.29106 73.966763 31.0625 68.658203 L 31.0625 68.65625 L 31.060547 68.654297 C 25.831997 63.344997 23.216797 56.384408 23.216797 49.423828 C 23.216797 42.463988 25.831997 35.502659 31.060547 30.193359 L 31.0625 30.193359 L 23.486328 22.5 z "
     id="path4124" />
</svg>
