<?xml version="1.0" encoding="UTF-8" standalone="no"?>
<svg
   xmlns:dc="http://purl.org/dc/elements/1.1/"
   xmlns:cc="http://creativecommons.org/ns#"
   xmlns:rdf="http://www.w3.org/1999/02/22-rdf-syntax-ns#"
   xmlns:svg="http://www.w3.org/2000/svg"
   xmlns="http://www.w3.org/2000/svg"
   version="1.1"
   id="svg7650"
   viewBox="0 0 99.999997 99.999997"
   height="28.222221mm"
   width="28.222221mm">
  <defs
     id="defs7652" />
  <metadata
     id="metadata7655">
    <rdf:RDF>
      <cc:Work
         rdf:about="">
        <dc:format>image/svg+xml</dc:format>
        <dc:type
           rdf:resource="http://purl.org/dc/dcmitype/StillImage" />
        <dc:title></dc:title>
      </cc:Work>
    </rdf:RDF>
  </metadata>
  <path
     style="fill:#ffffff;fill-opacity:1;fill-rule:evenodd;stroke:none"
     d="m 12.5,12.50006 2e-5,26.7857 6.69642,-6.69643 17.4107,17.41069 -17.41071,17.41065 -6.69643,-6.6963 -10e-6,26.78561 26.78573,0 -6.69649,-6.69644 17.41071,-17.41065 4.01789,4.01778 13.39289,13.39301 -6.69642,6.6963 26.78563,0 6e-5,-26.78561 -6.69642,6.69644 -13.39289,-13.39288 -4.01791,-4.01791 4.01786,-4.01792 13.39285,-13.39282 6.6965,6.69649 -5e-5,-26.78572 -26.78568,10e-6 6.69644,6.69643 -13.39286,13.39284 -4.01785,4.01785 -17.41069,-17.41069 6.69642,-6.69643 -26.78571,0 z"
     id="path3334" />
</svg>
