<?xml version="1.0" encoding="UTF-8" standalone="no"?>
<svg
   xmlns:dc="http://purl.org/dc/elements/1.1/"
   xmlns:cc="http://creativecommons.org/ns#"
   xmlns:rdf="http://www.w3.org/1999/02/22-rdf-syntax-ns#"
   xmlns:svg="http://www.w3.org/2000/svg"
   xmlns="http://www.w3.org/2000/svg"
   xmlns:xlink="http://www.w3.org/1999/xlink"
   width="28.222221mm"
   height="28.222221mm"
   viewBox="0 0 99.999997 99.999997"
   id="svg7650"
   version="1.1">
  <defs
     id="defs7652">
    <linearGradient
       id="linearGradient6674">
      <stop
         id="stop6676"
         offset="0"
         style="stop-color:#ffffff;stop-opacity:1;" />
      <stop
         id="stop6678"
         offset="1"
         style="stop-color:#ffffff;stop-opacity:0;" />
    </linearGradient>
    <linearGradient
       gradientUnits="userSpaceOnUse"
       y2="951.64789"
       x2="371.78571"
       y1="951.64789"
       x1="296.78571"
       id="linearGradient6680-4"
       xlink:href="#linearGradient6674"
       gradientTransform="translate(-400.20245,-938.53813)" />
  </defs>
  <metadata
     id="metadata7655">
    <rdf:RDF>
      <cc:Work
         rdf:about="">
        <dc:format>image/svg+xml</dc:format>
        <dc:type
           rdf:resource="http://purl.org/dc/dcmitype/StillImage" />
        <dc:title></dc:title>
      </cc:Work>
    </rdf:RDF>
  </metadata>
  <g
     transform="translate(115.91674,36.890242)"
     id="g5389">
    <rect
       style="opacity:1;fill:url(#linearGradient6680-4);fill-opacity:1;stroke:none;stroke-width:4;stroke-linecap:round;stroke-linejoin:round;stroke-miterlimit:4;stroke-dasharray:none;stroke-dashoffset:0;stroke-opacity:1"
       id="rect6672-7"
       width="75.000008"
       height="75"
       x="-103.41674"
       y="-24.390244" />
    <path
       style="fill:#ffffff;fill-opacity:1;stroke:none"
       d="m -65.917004,-0.01526109 -8.74417,7.15835999 -2.1943,0 -2.18404,0 -2.18292,0 c -1.21156,0 -2.1943,1.07193 -2.1943,2.39372 l 0,7.1572401 c 0,1.3218 0.98274,2.38236 2.1943,2.38236 l 2.18292,0 2.18404,0 2.1943,0 8.74417,7.15835 0,-26.25003009 z m 11.38394,2.61933999 a 1.1666552,1.1666726 0 0 0 -0.57876,2.15556 c 4.63766,3.2474 5.77317,9.6015301 2.52584,14.2392901 -0.68424,0.97714 -1.54869,1.82 -2.52584,2.50423 a 1.1697025,1.1697201 0 0 0 1.34438,1.91401 c 1.20008,-0.84026 2.24377,-1.88399 3.0841,-3.08413 1.48896,-2.12649 2.22567,-4.55719 2.26494,-6.97722 0.0656,-4.0333901 -1.80495,-8.0286101 -5.34904,-10.5102601 a 1.1666552,1.1666726 0 0 0 -0.76562,-0.24148 z m -3.33931,2.33898 a 1.1666552,1.1666726 0 0 0 -0.1162,0 l 0,0 a 1.1666552,1.1666726 0 0 0 -0.5685,2.14308 c 3.34914,2.34507 4.14975,6.9206601 1.80466,10.2698101 -0.49365,0.70501 -1.09966,1.32242 -1.80466,1.81613 a 1.1666552,1.1666726 0 1 0 1.33411,1.914 c 0.92793,-0.64972 1.73485,-1.45664 2.38458,-2.38456 l 0,-0.0111 c 1.14697,-1.6414 1.71992,-3.52388 1.74997,-5.39238 0.0502,-3.1192 -1.3958,-6.2079901 -4.13455,-8.1257001 a 1.1666552,1.1666726 0 0 0 -0.6494,-0.23129 z m -3.51818,2.24332 0,0 a 1.1671079,1.1671253 0 0 0 -0.67787,2.12145 c 2.12231,1.4860901 2.63445,4.3740701 1.14841,6.4963801 -0.31222,0.44591 -0.70253,0.83622 -1.14841,1.14848 a 1.1671079,1.1671253 0 0 0 1.33413,1.914 c 0.6688,-0.46827 1.26,-1.04808 1.72832,-1.71691 l 0,-0.0111 c 0.82597,-1.18197 1.2262,-2.5356 1.24754,-3.88282 0.0357,-2.24878 -1.0039,-4.4706901 -2.97586,-5.8515701 a 1.1671079,1.1671253 0 0 0 -0.65626,-0.21874 z"
       id="path4743" />
  </g>
</svg>
