<?xml version="1.0" encoding="UTF-8" standalone="no"?>
<!-- Created with Inkscape (http://www.inkscape.org/) -->

<svg
   xmlns:dc="http://purl.org/dc/elements/1.1/"
   xmlns:cc="http://creativecommons.org/ns#"
   xmlns:rdf="http://www.w3.org/1999/02/22-rdf-syntax-ns#"
   xmlns:svg="http://www.w3.org/2000/svg"
   xmlns="http://www.w3.org/2000/svg"
   xmlns:xlink="http://www.w3.org/1999/xlink"
   xmlns:sodipodi="http://sodipodi.sourceforge.net/DTD/sodipodi-0.dtd"
   xmlns:inkscape="http://www.inkscape.org/namespaces/inkscape"
   width="200"
   height="310"
   viewBox="0 0 200 310.00001"
   id="svg6652"
   version="1.1"
   inkscape:version="0.91 r13725"
   sodipodi:docname="grafica.svg">
  <defs
     id="defs6654">
    <linearGradient
       inkscape:collect="always"
       id="linearGradient6674">
      <stop
         style="stop-color:#ffffff;stop-opacity:1;"
         offset="0"
         id="stop6676" />
      <stop
         style="stop-color:#ffffff;stop-opacity:0;"
         offset="1"
         id="stop6678" />
    </linearGradient>
    <linearGradient
       inkscape:collect="always"
       xlink:href="#linearGradient6674"
       id="linearGradient6680"
       x1="296.78571"
       y1="951.64789"
       x2="371.78571"
       y2="951.64789"
       gradientUnits="userSpaceOnUse" />
  </defs>
  <sodipodi:namedview
     id="base"
     pagecolor="#ffffff"
     bordercolor="#666666"
     borderopacity="1.0"
     inkscape:pageopacity="0.0"
     inkscape:pageshadow="2"
     inkscape:zoom="0.7"
     inkscape:cx="564.86463"
     inkscape:cy="-234.41273"
     inkscape:document-units="px"
     inkscape:current-layer="layer1"
     showgrid="true"
     units="px"
     fit-margin-top="0"
     fit-margin-left="0"
     fit-margin-right="0"
     fit-margin-bottom="0"
     inkscape:window-width="1280"
     inkscape:window-height="961"
     inkscape:window-x="0"
     inkscape:window-y="0"
     inkscape:window-maximized="1"
     inkscape:snap-bbox="true"
     inkscape:bbox-paths="true"
     inkscape:bbox-nodes="true"
     inkscape:snap-bbox-edge-midpoints="true"
     inkscape:snap-bbox-midpoints="true"
     inkscape:object-paths="true"
     inkscape:snap-intersection-paths="true"
     inkscape:object-nodes="true"
     inkscape:snap-smooth-nodes="true"
     inkscape:snap-midpoints="true">
    <inkscape:grid
       type="xygrid"
       id="grid7239"
       empspacing="1"
       spacingy="1"
       spacingx="1" />
  </sodipodi:namedview>
  <metadata
     id="metadata6657">
    <rdf:RDF>
      <cc:Work
         rdf:about="">
        <dc:format>image/svg+xml</dc:format>
        <dc:type
           rdf:resource="http://purl.org/dc/dcmitype/StillImage" />
        <dc:title />
      </cc:Work>
    </rdf:RDF>
  </metadata>
  <g
     inkscape:label="Livello 1"
     inkscape:groupmode="layer"
     id="layer1"
     transform="translate(-34.285714,-451.64792)">
    <path
       inkscape:connector-curvature="0"
       id="path7973"
       d="m 234.28571,551.64792 c 0,55.2286 -44.77156,100 -100,100 -55.228436,0 -99.999996,-44.7714 -99.999996,-100 0,-55.2284 44.77156,-100 99.999996,-100 55.22844,0 100,44.7716 100,100 z"
       style="fill:#ff841a;fill-opacity:1;stroke:none"
       inkscape:export-filename="/home/walter/Polifemo/icone/occhio.png"
       inkscape:export-xdpi="57.599998"
       inkscape:export-ydpi="57.599998" />
    <path
       inkscape:connector-curvature="0"
       id="path7998"
       style="fill:#ffffff;fill-opacity:1;fill-rule:evenodd;stroke:none"
       d="m 134.28465,476.64782 c 41.42098,0 75.00105,33.5811 75.00105,74.9999 0,41.4217 -33.58007,75.0003 -75.00105,75.0003 -41.419376,0 -74.998946,-33.5786 -74.998946,-75.0003 0,-41.4188 33.57957,-74.9999 74.998946,-74.9999"
       inkscape:export-filename="/home/walter/Polifemo/icone/occhio.png"
       inkscape:export-xdpi="57.599998"
       inkscape:export-ydpi="57.599998" />
    <path
       inkscape:connector-curvature="0"
       id="path8002"
       style="fill:#a1b3b3;fill-opacity:1;fill-rule:evenodd;stroke:none"
       d="m 134.28494,502.89782 c 26.92414,0 48.75082,21.825 48.75082,48.7493 0,26.9236 -21.82668,48.7508 -48.75082,48.7508 -26.92262,0 -48.749286,-21.8272 -48.749286,-48.7508 0,-26.9243 21.826666,-48.7493 48.749286,-48.7493"
       inkscape:export-filename="/home/walter/Polifemo/icone/occhio.png"
       inkscape:export-xdpi="57.599998"
       inkscape:export-ydpi="57.599998" />
    <g
       id="g6633"
       transform="matrix(-1,0,0,1,-78.390956,-4026.7777)"
       inkscape:export-filename="/home/walter/Polifemo/icone/occhio.png"
       inkscape:export-xdpi="57.599998"
       inkscape:export-ydpi="57.599998">
      <path
         d="m -212.9869,4554.2039 c 13.54846,0 24.53053,10.984 24.53053,24.5306 0,13.5467 -10.98207,24.5307 -24.53053,24.5307 -13.54616,0 -24.52823,-10.984 -24.52823,-24.5307 0,-13.5466 10.98207,-24.5306 24.52823,-24.5306 z"
         style="fill:#241c1c;fill-opacity:1;fill-rule:evenodd;stroke:none;stroke-width:0.82395929;stroke-linecap:butt;stroke-linejoin:miter;stroke-miterlimit:22.92558479;stroke-dasharray:none;stroke-opacity:1"
         id="path8004"
         inkscape:connector-curvature="0" />
      <path
         d="m -225.25064,4554.2039 c 6.77385,0 12.26374,5.4909 12.26374,12.2649 0,6.7749 -5.48989,12.2657 -12.26374,12.2657 -6.7746,0 -12.26449,-5.4908 -12.26449,-12.2657 0,-6.774 5.48989,-12.2649 12.26449,-12.2649"
         style="fill:#ffffff;fill-opacity:1;fill-rule:evenodd;stroke:none"
         id="path8006"
         inkscape:connector-curvature="0" />
    </g>
    <path
       style="fill:#ff841a;fill-opacity:1;stroke:none"
       d="m 88.712644,626.64792 0,21.7798 c -0.45356,0.434 -0.8685,0.8961 -1.28173,1.3885 l -29.30145,34.8922 c -6.08582,7.2529 -5.15309,18.0186 2.0996,24.1044 7.25272,6.0858 17.98341,5.1164 24.06922,-2.1362 l 4.41436,-5.2704 0,8.9722 0,22.7874 0,11.3923 c 0,9.4677 7.62207,17.0898 17.089846,17.0898 9.46777,0 17.08984,-7.6221 17.08984,-17.0898 l 0,-11.3923 22.78595,0 0,11.3923 c 0,9.4677 7.62207,17.0898 17.08984,17.0898 9.46778,0 17.08985,-7.6221 17.08985,-17.0898 l 0,-11.3923 0,-22.7874 0,-8.9722 4.41589,5.2704 c 6.0858,7.2526 16.81498,8.222 24.06769,2.1362 7.2527,-6.0858 8.18672,-16.8515 2.10113,-24.1044 l -29.30298,-34.8922 c -0.41323,-0.4924 -0.82806,-0.9545 -1.28173,-1.3885 l 0,-21.7798 z"
       id="path6627"
       inkscape:connector-curvature="0"
       sodipodi:nodetypes="ccccsccccsssccsssccccsccccc" />
    <rect
       style="opacity:1;fill:#37a948;fill-opacity:1;stroke:none;stroke-width:4;stroke-linecap:round;stroke-linejoin:round;stroke-miterlimit:4;stroke-dasharray:none;stroke-dashoffset:0;stroke-opacity:1"
       id="rect6360"
       width="100"
       height="100"
       x="-125.71429"
       y="901.64789"
       rx="0"
       ry="0" />
    <path
       d="m -49.19639,924.14797 5e-4,10e-4 c 7.32136,7.43458 10.983139,17.1787 10.983139,26.9223 0,9.74411 -3.661779,19.48845 -10.983139,26.92303 l -5e-4,0.001 -0.0015,7.4e-4 c -7.322079,7.43412 -16.918678,11.1524 -26.514777,11.1524 -9.596119,0 -19.192958,-3.7183 -26.515033,-11.1524 l -0.001,-7.4e-4 -0.002,-0.001 c -7.32134,-7.43458 -10.98288,-17.17892 -10.98288,-26.92303 0,-9.7436 3.66154,-19.48772 10.98288,-26.9223 l 0.002,-10e-4 7.575575,7.69258 -7.4e-4,7.6e-4 c -5.228556,5.3093 -7.844095,12.27062 -7.844095,19.23046 0,6.96058 2.615539,13.92115 7.844095,19.23045 l 7.4e-4,10e-4 0.0015,0.002 c 5.228559,5.30856 12.084139,7.96408 18.939218,7.96408 6.854819,0 13.709899,-2.65552 18.939198,-7.96408 l 5e-4,-0.002 0.0015,-10e-4 c 5.22782,-5.3093 7.843619,-12.26987 7.843619,-19.23045 0,-6.95984 -2.615799,-13.92116 -7.843619,-19.23046 l -0.0015,-7.6e-4 7.576579,-7.69258 z"
       id="path4124"
       style="fill:#ffffff;fill-opacity:1;fill-rule:nonzero;stroke:none"
       inkscape:connector-curvature="0" />
    <rect
       width="12.499999"
       height="37.499996"
       x="-81.964287"
       y="914.14789"
       id="rect4492"
       style="fill:#ffffff;fill-opacity:1;stroke:none" />
    <rect
       ry="0"
       rx="0"
       y="1021.6479"
       x="-125.71429"
       height="100"
       width="100"
       id="rect6377"
       style="opacity:1;fill:#ff841a;fill-opacity:1;stroke:none;stroke-width:4;stroke-linecap:round;stroke-linejoin:round;stroke-miterlimit:4;stroke-dasharray:none;stroke-dashoffset:0;stroke-opacity:1" />
    <path
       inkscape:connector-curvature="0"
       style="fill:#ffb577;fill-opacity:1;fill-rule:nonzero;stroke:none"
       id="path6379"
       d="m -49.198269,1047.5286 5e-4,10e-4 c 7.32136,7.4346 10.983139,17.1787 10.983139,26.9223 0,9.7441 -3.661779,19.4884 -10.983139,26.923 l -5e-4,10e-4 -0.0015,8e-4 c -7.322079,7.4341 -16.918678,11.1524 -26.514777,11.1524 -9.596119,0 -19.192958,-3.7183 -26.515034,-11.1524 l -0.001,-8e-4 -0.002,-10e-4 c -7.32134,-7.4346 -10.98288,-17.1789 -10.98288,-26.923 0,-9.7436 3.66154,-19.4877 10.98288,-26.9223 l 0.002,-10e-4 7.575576,7.6926 -7.4e-4,7e-4 c -5.228556,5.3093 -7.844096,12.2707 -7.844096,19.2305 0,6.9606 2.61554,13.9211 7.844096,19.2304 l 7.4e-4,10e-4 0.0015,0 c 5.228559,5.3086 12.084139,7.9641 18.939218,7.9641 6.854819,0 13.709899,-2.6555 18.939198,-7.9641 l 5e-4,0 0.0015,-10e-4 c 5.22782,-5.3093 7.843619,-12.2698 7.843619,-19.2304 0,-6.9598 -2.615799,-13.9212 -7.843619,-19.2305 l -0.0015,-7e-4 7.576579,-7.6926 z" />
    <rect
       style="fill:#ffb577;fill-opacity:1;stroke:none"
       id="rect6381"
       y="1034.1479"
       x="-81.964287"
       height="37.499996"
       width="12.499999" />
    <rect
       ry="0"
       rx="0"
       y="901.64789"
       x="-5.7142859"
       height="100"
       width="100"
       id="rect6383"
       style="opacity:1;fill:#37a948;fill-opacity:1;stroke:none;stroke-width:4;stroke-linecap:round;stroke-linejoin:round;stroke-miterlimit:4;stroke-dasharray:none;stroke-dashoffset:0;stroke-opacity:1" />
    <path
       style="fill:#ffffff;fill-opacity:1;fill-rule:evenodd;stroke:none"
       d="m 6.7857281,914.14793 1.4e-5,26.7857 6.6964239,-6.69643 17.410694,17.41069 -17.410709,17.41065 -6.6964229,-6.6963 -1.4e-5,26.78561 26.7857349,0 -6.696493,-6.69644 17.410709,-17.41065 4.01789,4.01778 13.392889,13.39301 -6.696423,6.6963 26.785636,0 5.7e-5,-26.78561 -6.696423,6.69644 -13.392889,-13.39288 -4.017905,-4.01791 4.017862,-4.01792 13.392847,-13.39282 6.696494,6.69649 -4.3e-5,-26.78572 -26.785678,10e-6 6.696437,6.69643 -13.392861,13.39284 -4.017848,4.01785 -17.410695,-17.41069 6.696423,-6.69643 -26.7857069,0 z"
       id="path3334"
       inkscape:connector-curvature="0" />
    <path
       style="fill:#000000;fill-opacity:1;fill-rule:evenodd;stroke:none"
       id="path6427"
       d="m 286.78543,781.64846 12.50028,-6.4e-4 -25.00056,-25.00007 -24.99944,25.00071 12.49916,-6.4e-4 4.8e-4,25.00027 25.00008,0 0,-24.99963 z"
       inkscape:connector-curvature="0" />
    <rect
       style="opacity:1;fill:#ff841a;fill-opacity:1;stroke:none;stroke-width:4;stroke-linecap:round;stroke-linejoin:round;stroke-miterlimit:4;stroke-dasharray:none;stroke-dashoffset:0;stroke-opacity:1"
       id="rect6433"
       width="100"
       height="100"
       x="-5.7142859"
       y="1021.6479"
       rx="0"
       ry="0" />
    <path
       inkscape:connector-curvature="0"
       id="path6435"
       d="m 6.785728,1034.148 1.4e-5,26.7857 6.696424,-6.6965 17.410694,17.4107 -17.410709,17.4107 -6.696423,-6.6963 -1.4e-5,26.7856 26.785735,0 -6.696493,-6.6965 17.410709,-17.4106 4.01789,4.0178 13.392889,13.393 -6.696423,6.6963 26.785636,0 5.7e-5,-26.7856 -6.696423,6.6964 -13.392889,-13.3929 -4.017905,-4.0179 4.017862,-4.0179 13.392847,-13.3928 6.696494,6.6965 -4.3e-5,-26.7858 -26.785678,10e-5 6.696437,6.6964 -13.392861,13.3928 -4.017848,4.0179 -17.410695,-17.4107 6.696423,-6.6964 -26.785707,0 z"
       style="fill:#ffb577;fill-opacity:1;fill-rule:evenodd;stroke:none" />
    <rect
       style="opacity:1;fill:#37a948;fill-opacity:1;stroke:none;stroke-width:4;stroke-linecap:round;stroke-linejoin:round;stroke-miterlimit:4;stroke-dasharray:none;stroke-dashoffset:0;stroke-opacity:1"
       id="rect7408"
       width="100"
       height="100"
       x="-245.71428"
       y="901.64789"
       rx="0"
       ry="0" />
    <path
       d="m -186.33948,932.64797 28.12519,7.7e-4 0,47.49886 -75,0 0,-56.99937 37.50018,0 9.37463,9.49974 z"
       style="fill:#ffffff;fill-opacity:1;fill-rule:evenodd;stroke:none"
       id="path3388"
       inkscape:connector-curvature="0" />
    <rect
       ry="0"
       rx="0"
       y="1021.6479"
       x="-245.71428"
       height="100"
       width="100"
       id="rect7429"
       style="opacity:1;fill:#ff841a;fill-opacity:1;stroke:none;stroke-width:4;stroke-linecap:round;stroke-linejoin:round;stroke-miterlimit:4;stroke-dasharray:none;stroke-dashoffset:0;stroke-opacity:1" />
    <path
       inkscape:connector-curvature="0"
       id="path7431"
       style="fill:#ffb577;fill-opacity:1;fill-rule:evenodd;stroke:none"
       d="m -186.33948,1052.648 28.12519,7e-4 0,47.4989 -75,0 0,-56.9994 37.50018,0 9.37463,9.4998 z" />
    <rect
       ry="0"
       rx="0"
       y="901.64789"
       x="114.28571"
       height="100"
       width="100"
       id="rect7433"
       style="opacity:1;fill:#37a948;fill-opacity:1;stroke:none;stroke-width:4;stroke-linecap:round;stroke-linejoin:round;stroke-miterlimit:4;stroke-dasharray:none;stroke-dashoffset:0;stroke-opacity:1" />
    <g
       style="font-style:normal;font-variant:normal;font-weight:normal;font-stretch:normal;font-size:80px;line-height:125%;font-family:'Fredoka One';-inkscape-font-specification:'Fredoka One';letter-spacing:0px;word-spacing:0px;fill:#ffffff;fill-opacity:1;stroke:none;stroke-width:1px;stroke-linecap:butt;stroke-linejoin:miter;stroke-opacity:1"
       id="text7437"
       transform="matrix(1.2384412,0,0,1.2384412,-187.78545,-226.9121)">
      <path
         d="m 284.12573,921.36794 q 9.84,0 15.52,5.6 5.68,5.6 5.68,12.64 0,6.96 -6.24,10.08 l 0,0.56 q 0.8,0.4 2.32,1.76 1.6,1.28 2.56,2.56 2.64,3.36 2.64,7.68 0,8.56 -6.4,14.16 -6.4,5.52 -16.08,5.52 -9.6,0 -16,-5.6 -2.4,-2.16 -4.24,-5.68 -0.64,-1.28 -0.88,-2.08 l -0.16,-0.8 q -0.88,-2.64 -0.88,-4.32 0,-4.64 7.84,-4.64 3.2,0 4.24,0.8 1.36,1.04 2.4,4.16 0.8,2.56 4.4,3.84 1.52,0.48 3.36,0.48 4.24,0 6.24,-1.68 2,-1.76 2,-3.92 0,-2.16 -2,-3.76 -1.92,-1.68 -4.64,-1.68 -2.64,0 -3.6,-0.16 -0.96,-0.16 -2.08,-0.8 -2.16,-1.04 -2.16,-6.16 0,-5.6 2.96,-6.64 1.36,-0.4 4.16,-0.4 6.08,0 6.08,-3.12 0,-1.68 -1.6,-3.2 -1.6,-1.52 -4.48,-1.52 -2.8,0 -4.48,0.96 -1.68,0.96 -2.08,1.92 l -0.48,0.96 q -1.84,4 -5.28,4 -2,0 -4.4,-1.44 -4,-2.32 -4,-5.36 0,-1.28 1.84,-5.44 0.32,-0.72 1.76,-2.48 1.44,-1.84 3.28,-3.2 1.92,-1.36 5.28,-2.48 3.44,-1.12 7.6,-1.12 z"
         id="path7442"
         inkscape:connector-curvature="0" />
    </g>
    <rect
       style="opacity:1;fill:#37a948;fill-opacity:1;stroke:none;stroke-width:4;stroke-linecap:round;stroke-linejoin:round;stroke-miterlimit:4;stroke-dasharray:none;stroke-dashoffset:0;stroke-opacity:1"
       id="rect7444"
       width="50"
       height="50"
       x="214.28571"
       y="901.64789"
       rx="0"
       ry="0" />
    <path
       style="opacity:1;fill:#ffffff;fill-opacity:1;stroke:none;stroke-width:4;stroke-linecap:round;stroke-linejoin:round;stroke-miterlimit:4;stroke-dasharray:none;stroke-dashoffset:0;stroke-opacity:1"
       d="m 234.2857,911.64792 0,10 -10,0 0,10 10,0 0,10 10,0 0,-10 10,0 0,-10 -10,0 0,-10 -10,0 z"
       id="rect7446"
       inkscape:connector-curvature="0" />
    <rect
       ry="0"
       rx="0"
       y="951.64789"
       x="214.28571"
       height="50"
       width="50"
       id="rect7451"
       style="opacity:1;fill:#a1b3b3;fill-opacity:1;stroke:none;stroke-width:4;stroke-linecap:round;stroke-linejoin:round;stroke-miterlimit:4;stroke-dasharray:none;stroke-dashoffset:0;stroke-opacity:1" />
    <rect
       style="opacity:1;fill:#ffffff;fill-opacity:1;stroke:none;stroke-width:4;stroke-linecap:round;stroke-linejoin:round;stroke-miterlimit:4;stroke-dasharray:none;stroke-dashoffset:0;stroke-opacity:1"
       id="rect7455"
       width="30"
       height="10"
       x="224.28571"
       y="971.64795" />
    <rect
       ry="0"
       rx="0"
       y="1141.6479"
       x="-245.71428"
       height="100"
       width="100"
       id="rect7467"
       style="opacity:1;fill:#37a948;fill-opacity:1;stroke:none;stroke-width:4;stroke-linecap:round;stroke-linejoin:round;stroke-miterlimit:4;stroke-dasharray:none;stroke-dashoffset:0;stroke-opacity:1" />
    <path
       inkscape:connector-curvature="0"
       id="path7469"
       style="fill:#ffffff;fill-opacity:1;fill-rule:evenodd;stroke:none"
       d="m -186.33948,1172.648 28.12519,8e-4 0,47.4988 -75,0 0,-56.9994 37.50018,0 9.37463,9.4998 z" />
    <rect
       style="opacity:1;fill:#a1b3b3;fill-opacity:1;stroke:none;stroke-width:4;stroke-linecap:round;stroke-linejoin:round;stroke-miterlimit:4;stroke-dasharray:none;stroke-dashoffset:0;stroke-opacity:1"
       id="rect7471"
       width="100"
       height="100"
       x="54.285713"
       y="1141.6479"
       rx="0"
       ry="0" />
    <g
       transform="matrix(1.2384412,0,0,1.2384412,-247.78545,13.087837)"
       id="g7473"
       style="font-style:normal;font-variant:normal;font-weight:normal;font-stretch:normal;font-size:80px;line-height:125%;font-family:'Fredoka One';-inkscape-font-specification:'Fredoka One';letter-spacing:0px;word-spacing:0px;fill:#ffffff;fill-opacity:1;stroke:none;stroke-width:1px;stroke-linecap:butt;stroke-linejoin:miter;stroke-opacity:1">
      <path
         inkscape:connector-curvature="0"
         id="path7475"
         d="m 284.12573,921.36794 q 9.84,0 15.52,5.6 5.68,5.6 5.68,12.64 0,6.96 -6.24,10.08 l 0,0.56 q 0.8,0.4 2.32,1.76 1.6,1.28 2.56,2.56 2.64,3.36 2.64,7.68 0,8.56 -6.4,14.16 -6.4,5.52 -16.08,5.52 -9.6,0 -16,-5.6 -2.4,-2.16 -4.24,-5.68 -0.64,-1.28 -0.88,-2.08 l -0.16,-0.8 q -0.88,-2.64 -0.88,-4.32 0,-4.64 7.84,-4.64 3.2,0 4.24,0.8 1.36,1.04 2.4,4.16 0.8,2.56 4.4,3.84 1.52,0.48 3.36,0.48 4.24,0 6.24,-1.68 2,-1.76 2,-3.92 0,-2.16 -2,-3.76 -1.92,-1.68 -4.64,-1.68 -2.64,0 -3.6,-0.16 -0.96,-0.16 -2.08,-0.8 -2.16,-1.04 -2.16,-6.16 0,-5.6 2.96,-6.64 1.36,-0.4 4.16,-0.4 6.08,0 6.08,-3.12 0,-1.68 -1.6,-3.2 -1.6,-1.52 -4.48,-1.52 -2.8,0 -4.48,0.96 -1.68,0.96 -2.08,1.92 l -0.48,0.96 q -1.84,4 -5.28,4 -2,0 -4.4,-1.44 -4,-2.32 -4,-5.36 0,-1.28 1.84,-5.44 0.32,-0.72 1.76,-2.48 1.44,-1.84 3.28,-3.2 1.92,-1.36 5.28,-2.48 3.44,-1.12 7.6,-1.12 z" />
    </g>
    <rect
       ry="0"
       rx="0"
       y="1141.6479"
       x="154.28572"
       height="50"
       width="50"
       id="rect7477"
       style="opacity:1;fill:#a1b3b3;fill-opacity:1;stroke:none;stroke-width:4;stroke-linecap:round;stroke-linejoin:round;stroke-miterlimit:4;stroke-dasharray:none;stroke-dashoffset:0;stroke-opacity:1" />
    <path
       inkscape:connector-curvature="0"
       id="path7479"
       d="m 174.2857,1151.6479 0,10 -10,0 0,10 10,0 0,10 10,0 0,-10 10,0 0,-10 -10,0 0,-10 -10,0 z"
       style="opacity:1;fill:#ffffff;fill-opacity:1;stroke:none;stroke-width:4;stroke-linecap:round;stroke-linejoin:round;stroke-miterlimit:4;stroke-dasharray:none;stroke-dashoffset:0;stroke-opacity:1" />
    <rect
       style="opacity:1;fill:#a1b3b3;fill-opacity:1;stroke:none;stroke-width:4;stroke-linecap:round;stroke-linejoin:round;stroke-miterlimit:4;stroke-dasharray:none;stroke-dashoffset:0;stroke-opacity:1"
       id="rect7481"
       width="50"
       height="50"
       x="154.28572"
       y="1191.6479"
       rx="0"
       ry="0" />
    <rect
       y="1211.6479"
       x="164.28572"
       height="10"
       width="30"
       id="rect7483"
       style="opacity:1;fill:#ffffff;fill-opacity:1;stroke:none;stroke-width:4;stroke-linecap:round;stroke-linejoin:round;stroke-miterlimit:4;stroke-dasharray:none;stroke-dashoffset:0;stroke-opacity:1" />
    <rect
       style="opacity:1;fill:#ff841a;fill-opacity:1;stroke:none;stroke-width:4;stroke-linecap:round;stroke-linejoin:round;stroke-miterlimit:4;stroke-dasharray:none;stroke-dashoffset:0;stroke-opacity:1"
       id="rect7485"
       width="100"
       height="100"
       x="-145.71428"
       y="1141.6479"
       rx="0"
       ry="0" />
    <path
       d="m -69.198268,1167.5286 5e-4,10e-4 c 7.32136,7.4346 10.983139,17.1787 10.983139,26.9223 0,9.7441 -3.661779,19.4884 -10.983139,26.923 l -5e-4,10e-4 -0.0015,8e-4 c -7.322079,7.4341 -16.918678,11.1524 -26.514777,11.1524 -9.596115,0 -19.192955,-3.7183 -26.515035,-11.1524 l -0.001,-8e-4 -0.002,-10e-4 c -7.32134,-7.4346 -10.98288,-17.1789 -10.98288,-26.923 0,-9.7436 3.66154,-19.4877 10.98288,-26.9223 l 0.002,-10e-4 7.57558,7.6926 -7.4e-4,7e-4 c -5.22856,5.3093 -7.8441,12.2707 -7.8441,19.2305 0,6.9606 2.61554,13.9211 7.8441,19.2304 l 7.4e-4,10e-4 0.002,0 c 5.22856,5.3086 12.08414,7.9641 18.939215,7.9641 6.854819,0 13.709899,-2.6555 18.939198,-7.9641 l 5e-4,0 0.0015,-10e-4 c 5.22782,-5.3093 7.843619,-12.2698 7.843619,-19.2304 0,-6.9598 -2.615799,-13.9212 -7.843619,-19.2305 l -0.0015,-7e-4 7.576579,-7.6926 z"
       id="path7487"
       style="fill:#ffb577;fill-opacity:1;fill-rule:nonzero;stroke:none"
       inkscape:connector-curvature="0" />
    <rect
       width="12.499999"
       height="37.499996"
       x="-101.96429"
       y="1154.1479"
       id="rect7489"
       style="fill:#ffb577;fill-opacity:1;stroke:none" />
    <rect
       ry="0"
       rx="0"
       y="1141.6479"
       x="-45.714287"
       height="100"
       width="100"
       id="rect7491"
       style="opacity:1;fill:#ff841a;fill-opacity:1;stroke:none;stroke-width:4;stroke-linecap:round;stroke-linejoin:round;stroke-miterlimit:4;stroke-dasharray:none;stroke-dashoffset:0;stroke-opacity:1" />
    <path
       style="fill:#ffb577;fill-opacity:1;fill-rule:evenodd;stroke:none"
       d="m -33.214272,1154.148 1.4e-5,26.7857 6.696424,-6.6965 17.4106939,17.4107 -17.4107089,17.4107 -6.696423,-6.6963 -1.4e-5,26.7856 26.7857349,0 -6.6964929,-6.6965 17.4107089,-17.4106 4.01789,4.0178 13.3928891,13.393 -6.696423,6.6963 26.785636,0 5.7e-5,-26.7856 -6.696423,6.6964 -13.392889,-13.3929 -4.017905,-4.0179 4.017862,-4.0179 13.392847,-13.3928 6.696494,6.6965 -4.3e-5,-26.7858 -26.785678,10e-5 6.696437,6.6964 -13.3928611,13.3928 -4.017848,4.0179 -17.4106949,-17.4107 6.6964229,-6.6964 -26.7857069,0 z"
       id="path7493"
       inkscape:connector-curvature="0" />
    <rect
       style="opacity:1;fill:#37a948;fill-opacity:1;stroke:none;stroke-width:4;stroke-linecap:round;stroke-linejoin:round;stroke-miterlimit:4;stroke-dasharray:none;stroke-dashoffset:0;stroke-opacity:1"
       id="rect4185"
       width="100"
       height="100"
       x="284.28571"
       y="901.64789"
       rx="0"
       ry="0" />
    <path
       style="opacity:1;fill:#000000;fill-opacity:1;stroke:none;stroke-width:4;stroke-linecap:round;stroke-linejoin:round;stroke-miterlimit:4;stroke-dasharray:none;stroke-dashoffset:0;stroke-opacity:1"
       d="m 394.28571,744.14792 c -4.15498,0 -7.5,3.34502 -7.5,7.5 l 0,7.5 0,7.5 0,7.5 -11.25,0 c -4.15499,0 -7.5,3.34501 -7.5,7.5 l 0,6.75 52.50001,0 0,-6.75 c 0,-4.15499 -3.34501,-7.5 -7.50001,-7.5 l -11.25,0 0,-7.5 0,-7.5 0,-7.5 c 0,-4.15498 -3.34501,-7.5 -7.5,-7.5 z m -26.28808,45.75 -1.46192,29.25 55.50001,0 -1.46192,-29.25 -52.57617,0 z"
       id="rect4189"
       inkscape:connector-curvature="0" />
    <path
       style="opacity:1;fill:#000000;fill-opacity:1;stroke:none;stroke-width:4;stroke-linecap:round;stroke-linejoin:round;stroke-miterlimit:4;stroke-dasharray:none;stroke-dashoffset:0;stroke-opacity:1"
       d="m 191.47321,771.64792 c -1.4427,0 -2.60416,1.16146 -2.60416,2.60417 l 0,7.8125 -20.83334,0 0,10.41666 62.5,0 0,-10.41666 -20.83333,0 0,-7.29167 c 0,-0.0891 -0.0178,-0.17364 -0.0265,-0.26042 0.009,-0.0868 0.0265,-0.17128 0.0265,-0.26041 0,-1.44271 -1.16146,-2.60417 -2.60417,-2.60417 l -15.625,0 z m 2.60417,5.20833 10.41667,0 0,5.20834 -10.41667,0 0,-5.20834 z m -20.83333,17.70834 0,5.20833 0,5.20833 0,36.45834 c 0,2.88542 2.3229,5.20833 5.20833,5.20833 l 41.66667,0 c 2.88542,0 5.20833,-2.32291 5.20833,-5.20833 l 0,-36.45834 0,-5.20833 0,-5.20833 -5.20833,0 -41.66667,0 -5.20833,0 z"
       id="rect4218"
       inkscape:connector-curvature="0" />
    <rect
       style="opacity:1;fill:url(#linearGradient6680);fill-opacity:1;stroke:none;stroke-width:4;stroke-linecap:round;stroke-linejoin:round;stroke-miterlimit:4;stroke-dasharray:none;stroke-dashoffset:0;stroke-opacity:1"
       id="rect6672"
       width="75.000008"
       height="75"
       x="296.78571"
       y="914.14789" />
    <rect
       ry="0"
       rx="0"
       y="901.64789"
       x="414.28571"
       height="100"
       width="100"
       id="rect4950"
       style="opacity:1;fill:#ff841a;fill-opacity:1;stroke:none;stroke-width:4;stroke-linecap:round;stroke-linejoin:round;stroke-miterlimit:4;stroke-dasharray:none;stroke-dashoffset:0;stroke-opacity:1" />
    <path
       inkscape:connector-curvature="0"
       id="path7122"
       d="m 464.28513,923.52286 -18.73749,15.33933 -4.70209,0 -4.68009,0 -4.67768,0 c -2.59621,0 -4.70207,2.297 -4.70207,5.12941 l 0,15.33696 c 0,2.83241 2.10586,5.10504 4.70207,5.10504 l 4.67768,0 4.68009,0 4.70209,0 18.73749,15.33932 0,-56.25006 z m 24.39416,5.61286 a 2.4999755,2.5000129 0 0 0 -1.2402,4.61906 c 9.93783,6.95872 12.37108,20.5747 5.41252,30.51276 -1.46622,2.09388 -3.31862,3.9 -5.41252,5.36623 a 2.5065054,2.5065432 0 0 0 2.88082,4.10143 c 2.5716,-1.80054 4.80807,-4.03711 6.60878,-6.60884 3.19062,-4.55677 4.7693,-9.76541 4.85345,-14.95119 0.14049,-8.64297 -3.86777,-17.20418 -11.46223,-22.52199 a 2.4999755,2.5000129 0 0 0 -1.64062,-0.51746 z m -7.15565,5.01211 a 2.4999755,2.5000129 0 0 0 -0.249,0 l 0,0 a 2.4999755,2.5000129 0 0 0 -1.21823,4.59231 c 7.17673,5.02515 8.89232,14.82999 3.86713,22.00674 -1.05782,1.51074 -2.3564,2.83376 -3.86713,3.8917 a 2.4999755,2.5000129 0 1 0 2.85882,4.10144 c 1.98842,-1.39226 3.71752,-3.12136 5.10981,-5.10978 l 0,-0.0237 c 2.4578,-3.51728 3.68555,-7.55117 3.74994,-11.55511 0.10749,-6.68399 -2.991,-13.30282 -8.85975,-17.41221 a 2.4999755,2.5000129 0 0 0 -1.39158,-0.49563 z m -7.53896,4.80712 0,0 a 2.5009457,2.5009831 0 0 0 -1.45259,4.54594 c 4.54781,3.18449 5.64526,9.37303 2.46089,13.92083 -0.66904,0.95553 -1.50543,1.7919 -2.46089,2.46103 a 2.5009457,2.5009831 0 0 0 2.85885,4.10143 c 1.43313,-1.00344 2.7,-2.24588 3.70354,-3.6791 l 0,-0.0237 c 1.76993,-2.5328 2.62757,-5.43342 2.67331,-8.32034 0.0765,-4.8188 -2.15121,-9.58005 -6.37685,-12.53907 a 2.5009457,2.5009831 0 0 0 -1.40626,-0.46871 z"
       style="fill:#ffffff;fill-opacity:1;stroke:none" />
    <path
       style="fill:#ffffff;fill-opacity:1;stroke:none"
       d="m 334.28544,938.52287 -8.74417,7.15836 -2.1943,0 -2.18404,0 -2.18292,0 c -1.21156,0 -2.1943,1.07193 -2.1943,2.39372 l 0,7.15724 c 0,1.3218 0.98274,2.38236 2.1943,2.38236 l 2.18292,0 2.18404,0 2.1943,0 8.74417,7.15835 0,-26.25003 z m 11.38394,2.61934 a 1.1666552,1.1666726 0 0 0 -0.57876,2.15556 c 4.63766,3.2474 5.77317,9.60153 2.52584,14.23929 -0.68424,0.97714 -1.54869,1.82 -2.52584,2.50423 a 1.1697025,1.1697201 0 0 0 1.34438,1.91401 c 1.20008,-0.84026 2.24377,-1.88399 3.0841,-3.08413 1.48896,-2.12649 2.22567,-4.55719 2.26494,-6.97722 0.0656,-4.03339 -1.80495,-8.02861 -5.34904,-10.51026 a 1.1666552,1.1666726 0 0 0 -0.76562,-0.24148 z m -3.33931,2.33898 a 1.1666552,1.1666726 0 0 0 -0.1162,0 l 0,0 a 1.1666552,1.1666726 0 0 0 -0.5685,2.14308 c 3.34914,2.34507 4.14975,6.92066 1.80466,10.26981 -0.49365,0.70501 -1.09966,1.32242 -1.80466,1.81613 a 1.1666552,1.1666726 0 1 0 1.33411,1.914 c 0.92793,-0.64972 1.73485,-1.45664 2.38458,-2.38456 l 0,-0.0111 c 1.14697,-1.6414 1.71992,-3.52388 1.74997,-5.39238 0.0502,-3.1192 -1.3958,-6.20799 -4.13455,-8.1257 a 1.1666552,1.1666726 0 0 0 -0.6494,-0.23129 z m -3.51818,2.24332 0,0 a 1.1671079,1.1671253 0 0 0 -0.67787,2.12145 c 2.12231,1.48609 2.63445,4.37407 1.14841,6.49638 -0.31222,0.44591 -0.70253,0.83622 -1.14841,1.14848 a 1.1671079,1.1671253 0 0 0 1.33413,1.914 c 0.6688,-0.46827 1.26,-1.04808 1.72832,-1.71691 l 0,-0.0111 c 0.82597,-1.18197 1.2262,-2.5356 1.24754,-3.88282 0.0357,-2.24878 -1.0039,-4.47069 -2.97586,-5.85157 a 1.1671079,1.1671253 0 0 0 -0.65626,-0.21874 z"
       id="path4743"
       inkscape:connector-curvature="0" />
    <rect
       style="opacity:1;fill:#a1b3b3;fill-opacity:1;stroke:none;stroke-width:4;stroke-linecap:round;stroke-linejoin:round;stroke-miterlimit:4;stroke-dasharray:none;stroke-dashoffset:0;stroke-opacity:1"
       id="rect4196"
       width="100"
       height="100"
       x="534.28571"
       y="901.64789"
       rx="0"
       ry="0" />
    <rect
       ry="0"
       rx="0"
       y="671.64795"
       x="474.28571"
       height="100"
       width="100"
       id="rect4197"
       style="opacity:1;fill:#598fd3;fill-opacity:1;stroke:none;stroke-width:4;stroke-linecap:round;stroke-linejoin:round;stroke-miterlimit:4;stroke-dasharray:none;stroke-dashoffset:0;stroke-opacity:1" />
    <g
       id="g4209"
       transform="translate(2.5,0)">
      <rect
         style="opacity:1;fill:#ffffff;fill-opacity:1;stroke:none;stroke-width:4;stroke-linecap:round;stroke-linejoin:round;stroke-miterlimit:4;stroke-dasharray:none;stroke-dashoffset:0;stroke-opacity:1"
         id="rect4199"
         width="70"
         height="10"
         x="546.78571"
         y="916.64789" />
      <rect
         y="956.64789"
         x="546.78571"
         height="10"
         width="70"
         id="rect4201"
         style="opacity:1;fill:#ffffff;fill-opacity:1;stroke:none;stroke-width:4;stroke-linecap:round;stroke-linejoin:round;stroke-miterlimit:4;stroke-dasharray:none;stroke-dashoffset:0;stroke-opacity:1" />
      <rect
         style="opacity:1;fill:#ffffff;fill-opacity:1;stroke:none;stroke-width:4;stroke-linecap:round;stroke-linejoin:round;stroke-miterlimit:4;stroke-dasharray:none;stroke-dashoffset:0;stroke-opacity:1"
         id="rect4203"
         width="70"
         height="10"
         x="546.78571"
         y="976.64789" />
      <rect
         style="opacity:1;fill:#ffffff;fill-opacity:1;stroke:none;stroke-width:4;stroke-linecap:round;stroke-linejoin:round;stroke-miterlimit:4;stroke-dasharray:none;stroke-dashoffset:0;stroke-opacity:1"
         id="rect4205"
         width="70"
         height="10"
         x="546.78571"
         y="936.64789" />
    </g>
  </g>
</svg>
