<?xml version="1.0" encoding="UTF-8" standalone="no"?>
<!-- Created with Inkscape (http://www.inkscape.org/) -->

<svg
   xmlns:dc="http://purl.org/dc/elements/1.1/"
   xmlns:cc="http://creativecommons.org/ns#"
   xmlns:rdf="http://www.w3.org/1999/02/22-rdf-syntax-ns#"
   xmlns:svg="http://www.w3.org/2000/svg"
   xmlns="http://www.w3.org/2000/svg"
   xmlns:sodipodi="http://sodipodi.sourceforge.net/DTD/sodipodi-0.dtd"
   xmlns:inkscape="http://www.inkscape.org/namespaces/inkscape"
   width="200"
   height="310"
   viewBox="0 0 200 310.00001"
   id="svg6652"
   version="1.1"
   inkscape:version="0.91 r13725"
   sodipodi:docname="grafica.svg">
  <defs
     id="defs6654" />
  <sodipodi:namedview
     id="base"
     pagecolor="#ffffff"
     bordercolor="#666666"
     borderopacity="1.0"
     inkscape:pageopacity="0.0"
     inkscape:pageshadow="2"
     inkscape:zoom="1.979899"
     inkscape:cx="429.28252"
     inkscape:cy="-227.2081"
     inkscape:document-units="px"
     inkscape:current-layer="layer1"
     showgrid="true"
     units="px"
     fit-margin-top="0"
     fit-margin-left="0"
     fit-margin-right="0"
     fit-margin-bottom="0"
     inkscape:window-width="1280"
     inkscape:window-height="961"
     inkscape:window-x="0"
     inkscape:window-y="0"
     inkscape:window-maximized="1"
     inkscape:snap-bbox="true"
     inkscape:bbox-paths="true"
     inkscape:bbox-nodes="true"
     inkscape:snap-bbox-edge-midpoints="true"
     inkscape:snap-bbox-midpoints="true"
     inkscape:object-paths="true"
     inkscape:snap-intersection-paths="true"
     inkscape:object-nodes="true"
     inkscape:snap-smooth-nodes="true"
     inkscape:snap-midpoints="true">
    <inkscape:grid
       type="xygrid"
       id="grid7239"
       empspacing="1"
       spacingy="1"
       spacingx="1" />
  </sodipodi:namedview>
  <metadata
     id="metadata6657">
    <rdf:RDF>
      <cc:Work
         rdf:about="">
        <dc:format>image/svg+xml</dc:format>
        <dc:type
           rdf:resource="http://purl.org/dc/dcmitype/StillImage" />
        <dc:title></dc:title>
      </cc:Work>
    </rdf:RDF>
  </metadata>
  <g
     inkscape:label="Livello 1"
     inkscape:groupmode="layer"
     id="layer1"
     transform="translate(-34.285714,-451.64792)">
    <path
       inkscape:connector-curvature="0"
       id="path7973"
       d="m 234.28571,551.64792 c 0,55.2286 -44.77156,100 -100,100 -55.228436,0 -99.999996,-44.7714 -99.999996,-100 0,-55.2284 44.77156,-100 99.999996,-100 55.22844,0 100,44.7716 100,100 z"
       style="fill:#ff841a;fill-opacity:1;stroke:none"
       inkscape:export-filename="/home/walter/Polifemo/icone/occhio.png"
       inkscape:export-xdpi="57.599998"
       inkscape:export-ydpi="57.599998" />
    <path
       inkscape:connector-curvature="0"
       id="path7998"
       style="fill:#ffffff;fill-opacity:1;fill-rule:evenodd;stroke:none"
       d="m 134.28465,476.64782 c 41.42098,0 75.00105,33.5811 75.00105,74.9999 0,41.4217 -33.58007,75.0003 -75.00105,75.0003 -41.419376,0 -74.998946,-33.5786 -74.998946,-75.0003 0,-41.4188 33.57957,-74.9999 74.998946,-74.9999"
       inkscape:export-filename="/home/walter/Polifemo/icone/occhio.png"
       inkscape:export-xdpi="57.599998"
       inkscape:export-ydpi="57.599998" />
    <path
       inkscape:connector-curvature="0"
       id="path8002"
       style="fill:#a1b3b3;fill-opacity:1;fill-rule:evenodd;stroke:none"
       d="m 134.28494,502.89782 c 26.92414,0 48.75082,21.825 48.75082,48.7493 0,26.9236 -21.82668,48.7508 -48.75082,48.7508 -26.92262,0 -48.749286,-21.8272 -48.749286,-48.7508 0,-26.9243 21.826666,-48.7493 48.749286,-48.7493"
       inkscape:export-filename="/home/walter/Polifemo/icone/occhio.png"
       inkscape:export-xdpi="57.599998"
       inkscape:export-ydpi="57.599998" />
    <g
       id="g6633"
       transform="matrix(-1,0,0,1,-78.390956,-4026.7777)"
       inkscape:export-filename="/home/walter/Polifemo/icone/occhio.png"
       inkscape:export-xdpi="57.599998"
       inkscape:export-ydpi="57.599998">
      <path
         d="m -212.9869,4554.2039 c 13.54846,0 24.53053,10.984 24.53053,24.5306 0,13.5467 -10.98207,24.5307 -24.53053,24.5307 -13.54616,0 -24.52823,-10.984 -24.52823,-24.5307 0,-13.5466 10.98207,-24.5306 24.52823,-24.5306 z"
         style="fill:#241c1c;fill-opacity:1;fill-rule:evenodd;stroke:none;stroke-width:0.82395929;stroke-linecap:butt;stroke-linejoin:miter;stroke-miterlimit:22.92558479;stroke-dasharray:none;stroke-opacity:1"
         id="path8004"
         inkscape:connector-curvature="0" />
      <path
         d="m -225.25064,4554.2039 c 6.77385,0 12.26374,5.4909 12.26374,12.2649 0,6.7749 -5.48989,12.2657 -12.26374,12.2657 -6.7746,0 -12.26449,-5.4908 -12.26449,-12.2657 0,-6.774 5.48989,-12.2649 12.26449,-12.2649"
         style="fill:#ffffff;fill-opacity:1;fill-rule:evenodd;stroke:none"
         id="path8006"
         inkscape:connector-curvature="0" />
    </g>
    <path
       style="fill:#ff841a;fill-opacity:1;stroke:none"
       d="m 88.712644,626.64792 0,21.7798 c -0.45356,0.434 -0.8685,0.8961 -1.28173,1.3885 l -29.30145,34.8922 c -6.08582,7.2529 -5.15309,18.0186 2.0996,24.1044 7.25272,6.0858 17.98341,5.1164 24.06922,-2.1362 l 4.41436,-5.2704 0,8.9722 0,22.7874 0,11.3923 c 0,9.4677 7.62207,17.0898 17.089846,17.0898 9.46777,0 17.08984,-7.6221 17.08984,-17.0898 l 0,-11.3923 22.78595,0 0,11.3923 c 0,9.4677 7.62207,17.0898 17.08984,17.0898 9.46778,0 17.08985,-7.6221 17.08985,-17.0898 l 0,-11.3923 0,-22.7874 0,-8.9722 4.41589,5.2704 c 6.0858,7.2526 16.81498,8.222 24.06769,2.1362 7.2527,-6.0858 8.18672,-16.8515 2.10113,-24.1044 l -29.30298,-34.8922 c -0.41323,-0.4924 -0.82806,-0.9545 -1.28173,-1.3885 l 0,-21.7798 z"
       id="path6627"
       inkscape:connector-curvature="0"
       sodipodi:nodetypes="ccccsccccsssccsssccccsccccc" />
    <rect
       style="opacity:1;fill:#37a948;fill-opacity:1;stroke:none;stroke-width:4;stroke-linecap:round;stroke-linejoin:round;stroke-miterlimit:4;stroke-dasharray:none;stroke-dashoffset:0;stroke-opacity:1"
       id="rect6360"
       width="100"
       height="100"
       x="-125.71429"
       y="901.64789"
       rx="0"
       ry="0" />
    <path
       d="m -49.19639,924.14797 5e-4,10e-4 c 7.32136,7.43458 10.983139,17.1787 10.983139,26.9223 0,9.74411 -3.661779,19.48845 -10.983139,26.92303 l -5e-4,0.001 -0.0015,7.4e-4 c -7.322079,7.43412 -16.918678,11.1524 -26.514777,11.1524 -9.596119,0 -19.192958,-3.7183 -26.515033,-11.1524 l -0.001,-7.4e-4 -0.002,-0.001 c -7.32134,-7.43458 -10.98288,-17.17892 -10.98288,-26.92303 0,-9.7436 3.66154,-19.48772 10.98288,-26.9223 l 0.002,-10e-4 7.575575,7.69258 -7.4e-4,7.6e-4 c -5.228556,5.3093 -7.844095,12.27062 -7.844095,19.23046 0,6.96058 2.615539,13.92115 7.844095,19.23045 l 7.4e-4,10e-4 0.0015,0.002 c 5.228559,5.30856 12.084139,7.96408 18.939218,7.96408 6.854819,0 13.709899,-2.65552 18.939198,-7.96408 l 5e-4,-0.002 0.0015,-10e-4 c 5.22782,-5.3093 7.843619,-12.26987 7.843619,-19.23045 0,-6.95984 -2.615799,-13.92116 -7.843619,-19.23046 l -0.0015,-7.6e-4 7.576579,-7.69258 z"
       id="path4124"
       style="fill:#ffffff;fill-opacity:1;fill-rule:nonzero;stroke:none"
       inkscape:connector-curvature="0" />
    <rect
       width="12.499999"
       height="37.499996"
       x="-81.964287"
       y="914.14789"
       id="rect4492"
       style="fill:#ffffff;fill-opacity:1;stroke:none" />
    <rect
       ry="0"
       rx="0"
       y="1021.6479"
       x="-125.71429"
       height="100"
       width="100"
       id="rect6377"
       style="opacity:1;fill:#ff841a;fill-opacity:1;stroke:none;stroke-width:4;stroke-linecap:round;stroke-linejoin:round;stroke-miterlimit:4;stroke-dasharray:none;stroke-dashoffset:0;stroke-opacity:1" />
    <path
       inkscape:connector-curvature="0"
       style="fill:#ffb577;fill-opacity:1;fill-rule:nonzero;stroke:none"
       id="path6379"
       d="m -49.198269,1047.5286 5e-4,10e-4 c 7.32136,7.4346 10.983139,17.1787 10.983139,26.9223 0,9.7441 -3.661779,19.4884 -10.983139,26.923 l -5e-4,10e-4 -0.0015,8e-4 c -7.322079,7.4341 -16.918678,11.1524 -26.514777,11.1524 -9.596119,0 -19.192958,-3.7183 -26.515034,-11.1524 l -0.001,-8e-4 -0.002,-10e-4 c -7.32134,-7.4346 -10.98288,-17.1789 -10.98288,-26.923 0,-9.7436 3.66154,-19.4877 10.98288,-26.9223 l 0.002,-10e-4 7.575576,7.6926 -7.4e-4,7e-4 c -5.228556,5.3093 -7.844096,12.2707 -7.844096,19.2305 0,6.9606 2.61554,13.9211 7.844096,19.2304 l 7.4e-4,10e-4 0.0015,0 c 5.228559,5.3086 12.084139,7.9641 18.939218,7.9641 6.854819,0 13.709899,-2.6555 18.939198,-7.9641 l 5e-4,0 0.0015,-10e-4 c 5.22782,-5.3093 7.843619,-12.2698 7.843619,-19.2304 0,-6.9598 -2.615799,-13.9212 -7.843619,-19.2305 l -0.0015,-7e-4 7.576579,-7.6926 z" />
    <rect
       style="fill:#ffb577;fill-opacity:1;stroke:none"
       id="rect6381"
       y="1034.1479"
       x="-81.964287"
       height="37.499996"
       width="12.499999" />
    <rect
       ry="0"
       rx="0"
       y="901.64789"
       x="-5.7142859"
       height="100"
       width="100"
       id="rect6383"
       style="opacity:1;fill:#37a948;fill-opacity:1;stroke:none;stroke-width:4;stroke-linecap:round;stroke-linejoin:round;stroke-miterlimit:4;stroke-dasharray:none;stroke-dashoffset:0;stroke-opacity:1" />
    <path
       style="fill:#ffffff;fill-opacity:1;fill-rule:evenodd;stroke:none"
       d="m 6.7857281,914.14793 1.4e-5,26.7857 6.6964239,-6.69643 17.410694,17.41069 -17.410709,17.41065 -6.6964229,-6.6963 -1.4e-5,26.78561 26.7857349,0 -6.696493,-6.69644 17.410709,-17.41065 4.01789,4.01778 13.392889,13.39301 -6.696423,6.6963 26.785636,0 5.7e-5,-26.78561 -6.696423,6.69644 -13.392889,-13.39288 -4.017905,-4.01791 4.017862,-4.01792 13.392847,-13.39282 6.696494,6.69649 -4.3e-5,-26.78572 -26.785678,10e-6 6.696437,6.69643 -13.392861,13.39284 -4.017848,4.01785 -17.410695,-17.41069 6.696423,-6.69643 -26.7857069,0 z"
       id="path3334"
       inkscape:connector-curvature="0" />
    <path
       style="fill:#000000;fill-opacity:1;fill-rule:evenodd;stroke:none"
       id="path6427"
       d="m 286.78543,781.64846 12.50028,-6.4e-4 -25.00056,-25.00007 -24.99944,25.00071 12.49916,-6.4e-4 4.8e-4,25.00027 25.00008,0 0,-24.99963 z"
       inkscape:connector-curvature="0" />
    <rect
       style="opacity:1;fill:#ff841a;fill-opacity:1;stroke:none;stroke-width:4;stroke-linecap:round;stroke-linejoin:round;stroke-miterlimit:4;stroke-dasharray:none;stroke-dashoffset:0;stroke-opacity:1"
       id="rect6433"
       width="100"
       height="100"
       x="-5.7142859"
       y="1021.6479"
       rx="0"
       ry="0" />
    <path
       inkscape:connector-curvature="0"
       id="path6435"
       d="m 6.785728,1034.148 1.4e-5,26.7857 6.696424,-6.6965 17.410694,17.4107 -17.410709,17.4107 -6.696423,-6.6963 -1.4e-5,26.7856 26.785735,0 -6.696493,-6.6965 17.410709,-17.4106 4.01789,4.0178 13.392889,13.393 -6.696423,6.6963 26.785636,0 5.7e-5,-26.7856 -6.696423,6.6964 -13.392889,-13.3929 -4.017905,-4.0179 4.017862,-4.0179 13.392847,-13.3928 6.696494,6.6965 -4.3e-5,-26.7858 -26.785678,10e-5 6.696437,6.6964 -13.392861,13.3928 -4.017848,4.0179 -17.410695,-17.4107 6.696423,-6.6964 -26.785707,0 z"
       style="fill:#ffb577;fill-opacity:1;fill-rule:evenodd;stroke:none" />
    <rect
       style="opacity:1;fill:#37a948;fill-opacity:1;stroke:none;stroke-width:4;stroke-linecap:round;stroke-linejoin:round;stroke-miterlimit:4;stroke-dasharray:none;stroke-dashoffset:0;stroke-opacity:1"
       id="rect7408"
       width="100"
       height="100"
       x="-245.71428"
       y="901.64789"
       rx="0"
       ry="0" />
    <path
       d="m -186.33948,932.64797 28.12519,7.7e-4 0,47.49886 -75,0 0,-56.99937 37.50018,0 9.37463,9.49974 z"
       style="fill:#ffffff;fill-opacity:1;fill-rule:evenodd;stroke:none"
       id="path3388"
       inkscape:connector-curvature="0" />
    <rect
       ry="0"
       rx="0"
       y="1021.6479"
       x="-245.71428"
       height="100"
       width="100"
       id="rect7429"
       style="opacity:1;fill:#ff841a;fill-opacity:1;stroke:none;stroke-width:4;stroke-linecap:round;stroke-linejoin:round;stroke-miterlimit:4;stroke-dasharray:none;stroke-dashoffset:0;stroke-opacity:1" />
    <path
       inkscape:connector-curvature="0"
       id="path7431"
       style="fill:#ffb577;fill-opacity:1;fill-rule:evenodd;stroke:none"
       d="m -186.33948,1052.648 28.12519,7e-4 0,47.4989 -75,0 0,-56.9994 37.50018,0 9.37463,9.4998 z" />
    <rect
       ry="0"
       rx="0"
       y="901.64789"
       x="114.28571"
       height="100"
       width="100"
       id="rect7433"
       style="opacity:1;fill:#37a948;fill-opacity:1;stroke:none;stroke-width:4;stroke-linecap:round;stroke-linejoin:round;stroke-miterlimit:4;stroke-dasharray:none;stroke-dashoffset:0;stroke-opacity:1" />
    <g
       style="font-style:normal;font-variant:normal;font-weight:normal;font-stretch:normal;font-size:80px;line-height:125%;font-family:'Fredoka One';-inkscape-font-specification:'Fredoka One';letter-spacing:0px;word-spacing:0px;fill:#ffffff;fill-opacity:1;stroke:none;stroke-width:1px;stroke-linecap:butt;stroke-linejoin:miter;stroke-opacity:1"
       id="text7437"
       transform="matrix(1.2384412,0,0,1.2384412,-187.78545,-226.9121)">
      <path
         d="m 284.12573,921.36794 q 9.84,0 15.52,5.6 5.68,5.6 5.68,12.64 0,6.96 -6.24,10.08 l 0,0.56 q 0.8,0.4 2.32,1.76 1.6,1.28 2.56,2.56 2.64,3.36 2.64,7.68 0,8.56 -6.4,14.16 -6.4,5.52 -16.08,5.52 -9.6,0 -16,-5.6 -2.4,-2.16 -4.24,-5.68 -0.64,-1.28 -0.88,-2.08 l -0.16,-0.8 q -0.88,-2.64 -0.88,-4.32 0,-4.64 7.84,-4.64 3.2,0 4.24,0.8 1.36,1.04 2.4,4.16 0.8,2.56 4.4,3.84 1.52,0.48 3.36,0.48 4.24,0 6.24,-1.68 2,-1.76 2,-3.92 0,-2.16 -2,-3.76 -1.92,-1.68 -4.64,-1.68 -2.64,0 -3.6,-0.16 -0.96,-0.16 -2.08,-0.8 -2.16,-1.04 -2.16,-6.16 0,-5.6 2.96,-6.64 1.36,-0.4 4.16,-0.4 6.08,0 6.08,-3.12 0,-1.68 -1.6,-3.2 -1.6,-1.52 -4.48,-1.52 -2.8,0 -4.48,0.96 -1.68,0.96 -2.08,1.92 l -0.48,0.96 q -1.84,4 -5.28,4 -2,0 -4.4,-1.44 -4,-2.32 -4,-5.36 0,-1.28 1.84,-5.44 0.32,-0.72 1.76,-2.48 1.44,-1.84 3.28,-3.2 1.92,-1.36 5.28,-2.48 3.44,-1.12 7.6,-1.12 z"
         id="path7442"
         inkscape:connector-curvature="0" />
    </g>
    <rect
       style="opacity:1;fill:#37a948;fill-opacity:1;stroke:none;stroke-width:4;stroke-linecap:round;stroke-linejoin:round;stroke-miterlimit:4;stroke-dasharray:none;stroke-dashoffset:0;stroke-opacity:1"
       id="rect7444"
       width="50"
       height="50"
       x="214.28571"
       y="901.64789"
       rx="0"
       ry="0" />
    <path
       style="opacity:1;fill:#ffffff;fill-opacity:1;stroke:none;stroke-width:4;stroke-linecap:round;stroke-linejoin:round;stroke-miterlimit:4;stroke-dasharray:none;stroke-dashoffset:0;stroke-opacity:1"
       d="m 234.2857,911.64792 0,10 -10,0 0,10 10,0 0,10 10,0 0,-10 10,0 0,-10 -10,0 0,-10 -10,0 z"
       id="rect7446"
       inkscape:connector-curvature="0" />
    <rect
       ry="0"
       rx="0"
       y="951.64789"
       x="214.28571"
       height="50"
       width="50"
       id="rect7451"
       style="opacity:1;fill:#a1b3b3;fill-opacity:1;stroke:none;stroke-width:4;stroke-linecap:round;stroke-linejoin:round;stroke-miterlimit:4;stroke-dasharray:none;stroke-dashoffset:0;stroke-opacity:1" />
    <rect
       style="opacity:1;fill:#ffffff;fill-opacity:1;stroke:none;stroke-width:4;stroke-linecap:round;stroke-linejoin:round;stroke-miterlimit:4;stroke-dasharray:none;stroke-dashoffset:0;stroke-opacity:1"
       id="rect7455"
       width="30"
       height="10"
       x="224.28571"
       y="971.64795" />
    <rect
       ry="0"
       rx="0"
       y="1141.6479"
       x="-245.71428"
       height="100"
       width="100"
       id="rect7467"
       style="opacity:1;fill:#37a948;fill-opacity:1;stroke:none;stroke-width:4;stroke-linecap:round;stroke-linejoin:round;stroke-miterlimit:4;stroke-dasharray:none;stroke-dashoffset:0;stroke-opacity:1" />
    <path
       inkscape:connector-curvature="0"
       id="path7469"
       style="fill:#ffffff;fill-opacity:1;fill-rule:evenodd;stroke:none"
       d="m -186.33948,1172.648 28.12519,8e-4 0,47.4988 -75,0 0,-56.9994 37.50018,0 9.37463,9.4998 z" />
    <rect
       style="opacity:1;fill:#a1b3b3;fill-opacity:1;stroke:none;stroke-width:4;stroke-linecap:round;stroke-linejoin:round;stroke-miterlimit:4;stroke-dasharray:none;stroke-dashoffset:0;stroke-opacity:1"
       id="rect7471"
       width="100"
       height="100"
       x="54.285713"
       y="1141.6479"
       rx="0"
       ry="0" />
    <g
       transform="matrix(1.2384412,0,0,1.2384412,-247.78545,13.087837)"
       id="g7473"
       style="font-style:normal;font-variant:normal;font-weight:normal;font-stretch:normal;font-size:80px;line-height:125%;font-family:'Fredoka One';-inkscape-font-specification:'Fredoka One';letter-spacing:0px;word-spacing:0px;fill:#ffffff;fill-opacity:1;stroke:none;stroke-width:1px;stroke-linecap:butt;stroke-linejoin:miter;stroke-opacity:1">
      <path
         inkscape:connector-curvature="0"
         id="path7475"
         d="m 284.12573,921.36794 q 9.84,0 15.52,5.6 5.68,5.6 5.68,12.64 0,6.96 -6.24,10.08 l 0,0.56 q 0.8,0.4 2.32,1.76 1.6,1.28 2.56,2.56 2.64,3.36 2.64,7.68 0,8.56 -6.4,14.16 -6.4,5.52 -16.08,5.52 -9.6,0 -16,-5.6 -2.4,-2.16 -4.24,-5.68 -0.64,-1.28 -0.88,-2.08 l -0.16,-0.8 q -0.88,-2.64 -0.88,-4.32 0,-4.64 7.84,-4.64 3.2,0 4.24,0.8 1.36,1.04 2.4,4.16 0.8,2.56 4.4,3.84 1.52,0.48 3.36,0.48 4.24,0 6.24,-1.68 2,-1.76 2,-3.92 0,-2.16 -2,-3.76 -1.92,-1.68 -4.64,-1.68 -2.64,0 -3.6,-0.16 -0.96,-0.16 -2.08,-0.8 -2.16,-1.04 -2.16,-6.16 0,-5.6 2.96,-6.64 1.36,-0.4 4.16,-0.4 6.08,0 6.08,-3.12 0,-1.68 -1.6,-3.2 -1.6,-1.52 -4.48,-1.52 -2.8,0 -4.48,0.96 -1.68,0.96 -2.08,1.92 l -0.48,0.96 q -1.84,4 -5.28,4 -2,0 -4.4,-1.44 -4,-2.32 -4,-5.36 0,-1.28 1.84,-5.44 0.32,-0.72 1.76,-2.48 1.44,-1.84 3.28,-3.2 1.92,-1.36 5.28,-2.48 3.44,-1.12 7.6,-1.12 z" />
    </g>
    <rect
       ry="0"
       rx="0"
       y="1141.6479"
       x="154.28572"
       height="50"
       width="50"
       id="rect7477"
       style="opacity:1;fill:#a1b3b3;fill-opacity:1;stroke:none;stroke-width:4;stroke-linecap:round;stroke-linejoin:round;stroke-miterlimit:4;stroke-dasharray:none;stroke-dashoffset:0;stroke-opacity:1" />
    <path
       inkscape:connector-curvature="0"
       id="path7479"
       d="m 174.2857,1151.6479 0,10 -10,0 0,10 10,0 0,10 10,0 0,-10 10,0 0,-10 -10,0 0,-10 -10,0 z"
       style="opacity:1;fill:#ffffff;fill-opacity:1;stroke:none;stroke-width:4;stroke-linecap:round;stroke-linejoin:round;stroke-miterlimit:4;stroke-dasharray:none;stroke-dashoffset:0;stroke-opacity:1" />
    <rect
       style="opacity:1;fill:#a1b3b3;fill-opacity:1;stroke:none;stroke-width:4;stroke-linecap:round;stroke-linejoin:round;stroke-miterlimit:4;stroke-dasharray:none;stroke-dashoffset:0;stroke-opacity:1"
       id="rect7481"
       width="50"
       height="50"
       x="154.28572"
       y="1191.6479"
       rx="0"
       ry="0" />
    <rect
       y="1211.6479"
       x="164.28572"
       height="10"
       width="30"
       id="rect7483"
       style="opacity:1;fill:#ffffff;fill-opacity:1;stroke:none;stroke-width:4;stroke-linecap:round;stroke-linejoin:round;stroke-miterlimit:4;stroke-dasharray:none;stroke-dashoffset:0;stroke-opacity:1" />
    <rect
       style="opacity:1;fill:#ff841a;fill-opacity:1;stroke:none;stroke-width:4;stroke-linecap:round;stroke-linejoin:round;stroke-miterlimit:4;stroke-dasharray:none;stroke-dashoffset:0;stroke-opacity:1"
       id="rect7485"
       width="100"
       height="100"
       x="-145.71428"
       y="1141.6479"
       rx="0"
       ry="0" />
    <path
       d="m -69.198268,1167.5286 5e-4,10e-4 c 7.32136,7.4346 10.983139,17.1787 10.983139,26.9223 0,9.7441 -3.661779,19.4884 -10.983139,26.923 l -5e-4,10e-4 -0.0015,8e-4 c -7.322079,7.4341 -16.918678,11.1524 -26.514777,11.1524 -9.596115,0 -19.192955,-3.7183 -26.515035,-11.1524 l -0.001,-8e-4 -0.002,-10e-4 c -7.32134,-7.4346 -10.98288,-17.1789 -10.98288,-26.923 0,-9.7436 3.66154,-19.4877 10.98288,-26.9223 l 0.002,-10e-4 7.57558,7.6926 -7.4e-4,7e-4 c -5.22856,5.3093 -7.8441,12.2707 -7.8441,19.2305 0,6.9606 2.61554,13.9211 7.8441,19.2304 l 7.4e-4,10e-4 0.002,0 c 5.22856,5.3086 12.08414,7.9641 18.939215,7.9641 6.854819,0 13.709899,-2.6555 18.939198,-7.9641 l 5e-4,0 0.0015,-10e-4 c 5.22782,-5.3093 7.843619,-12.2698 7.843619,-19.2304 0,-6.9598 -2.615799,-13.9212 -7.843619,-19.2305 l -0.0015,-7e-4 7.576579,-7.6926 z"
       id="path7487"
       style="fill:#ffb577;fill-opacity:1;fill-rule:nonzero;stroke:none"
       inkscape:connector-curvature="0" />
    <rect
       width="12.499999"
       height="37.499996"
       x="-101.96429"
       y="1154.1479"
       id="rect7489"
       style="fill:#ffb577;fill-opacity:1;stroke:none" />
    <rect
       ry="0"
       rx="0"
       y="1141.6479"
       x="-45.714287"
       height="100"
       width="100"
       id="rect7491"
       style="opacity:1;fill:#ff841a;fill-opacity:1;stroke:none;stroke-width:4;stroke-linecap:round;stroke-linejoin:round;stroke-miterlimit:4;stroke-dasharray:none;stroke-dashoffset:0;stroke-opacity:1" />
    <path
       style="fill:#ffb577;fill-opacity:1;fill-rule:evenodd;stroke:none"
       d="m -33.214272,1154.148 1.4e-5,26.7857 6.696424,-6.6965 17.4106939,17.4107 -17.4107089,17.4107 -6.696423,-6.6963 -1.4e-5,26.7856 26.7857349,0 -6.6964929,-6.6965 17.4107089,-17.4106 4.01789,4.0178 13.3928891,13.393 -6.696423,6.6963 26.785636,0 5.7e-5,-26.7856 -6.696423,6.6964 -13.392889,-13.3929 -4.017905,-4.0179 4.017862,-4.0179 13.392847,-13.3928 6.696494,6.6965 -4.3e-5,-26.7858 -26.785678,10e-5 6.696437,6.6964 -13.3928611,13.3928 -4.017848,4.0179 -17.4106949,-17.4107 6.6964229,-6.6964 -26.7857069,0 z"
       id="path7493"
       inkscape:connector-curvature="0" />
    <rect
       ry="0"
       rx="0"
       y="901.64789"
       x="284.28571"
       height="100"
       width="100"
       id="rect6889"
       style="opacity:1;fill:#37a948;fill-opacity:1;stroke:none;stroke-width:4;stroke-linecap:round;stroke-linejoin:round;stroke-miterlimit:4;stroke-dasharray:none;stroke-dashoffset:0;stroke-opacity:1" />
    <path
       style="fill:#ffffff;fill-opacity:1;stroke:none"
       d="m 334.28571,919.14811 c -16.24366,0 -29.41176,4.9378 -29.41176,11.0293 0,0.4355 0.0759,0.8645 0.2068,1.2866 l 7.14614,42.8309 c 0,4.061 9.87607,7.353 22.05882,7.353 12.18275,0 22.05883,-3.292 22.05883,-7.353 l 7.14613,-42.8309 c 0.1309,-0.4222 0.2068,-0.8512 0.2068,-1.2866 0,-6.0915 -13.16808,-11.0293 -29.41176,-11.0293 z m 0,3.6764 c 14.21323,0 25.7353,3.2919 25.7353,7.3529 0,4.061 -11.52208,7.3529 -25.7353,7.3529 -14.21321,0 -25.73529,-3.2919 -25.73529,-7.3529 0,-4.061 11.52208,-7.3529 25.73529,-7.3529 z"
       id="path3724"
       inkscape:connector-curvature="0" />
    <path
       style="opacity:1;fill:#000000;fill-opacity:1;stroke:none;stroke-width:4;stroke-linecap:round;stroke-linejoin:round;stroke-miterlimit:4;stroke-dasharray:none;stroke-dashoffset:0;stroke-opacity:1"
       d="M 400 470 C 383.38 470 370 474.46 370 480 L 370 520 C 370 525.54 383.38 530 400 530 C 416.62 530 430 525.54 430 520 L 430 480 C 430 474.46 416.62 470 400 470 z M 400 473 C 413.85 473 425 476.34501 425 480.5 C 425 484.65499 413.85 488 400 488 C 386.15 488 375 484.65499 375 480.5 C 375 476.34501 386.15 473 400 473 z "
       transform="translate(34.285714,451.64792)"
       id="rect6895" />
  </g>
</svg>
