<?xml version="1.0" encoding="UTF-8" standalone="no"?>
<!-- Created with Inkscape (http://www.inkscape.org/) -->

<svg
   xmlns:dc="http://purl.org/dc/elements/1.1/"
   xmlns:cc="http://creativecommons.org/ns#"
   xmlns:rdf="http://www.w3.org/1999/02/22-rdf-syntax-ns#"
   xmlns:svg="http://www.w3.org/2000/svg"
   xmlns="http://www.w3.org/2000/svg"
   version="1.1"
   width="479.646"
   height="55.016186"
   id="svg4354">
  <defs
     id="defs4356" />
  <metadata
     id="metadata4359">
    <rdf:RDF>
      <cc:Work
         rdf:about="">
        <dc:format>image/svg+xml</dc:format>
        <dc:type
           rdf:resource="http://purl.org/dc/dcmitype/StillImage" />
        <dc:title></dc:title>
      </cc:Work>
    </rdf:RDF>
  </metadata>
  <g
     transform="translate(-320.177,-767.71123)"
     id="layer1">
    <g
       transform="translate(342.596,786.78905)"
       id="g4301">
      <g
         transform="matrix(0.9835104,0,0,0.9835104,3.498545,2.4753185)"
         id="g4267">
        <path
           d="m 206.35172,33.242612 c 0.50498,0.293295 0.96736,0.553916 1.38054,0.781482 0.64062,-0.158616 1.27877,-0.321595 1.91476,-0.494485 l 6.78087,-2.056924 c 0.88936,-0.572059 1.84035,-1.208818 2.83035,-1.908218 l -0.4562,0.154232 -9.47672,2.793248 -2.9736,0.730665 z"
           id="path3714"
           style="fill:#e31f24;fill-opacity:1;fill-rule:nonzero;stroke:none" />
        <path
           d="m 201.62689,30.258464 c 0.7954,0.542596 1.55786,1.042103 2.27659,1.497225 l 8.95424,-1.276996 c 2.23378,-0.360959 4.47476,-0.708539 6.69443,-1.124164 1.18327,-0.844514 2.41984,-1.777007 3.6734,-2.79685 -3.51121,0.892234 -7.12182,1.453868 -10.7132,2.060525 l -10.88546,1.64026 z"
           id="path3716"
           style="fill:#e31f24;fill-opacity:1;fill-rule:nonzero;stroke:none" />
        <path
           d="m 213.09503,-13.51516 c -2.10657,2.579061 -2.71694,4.8613589 -3.09503,5.877343 0,0 -1.96261,-6.679665 -9.29272,-10.865293 -5.14532,-2.93758 -12.6122,-1.472906 -17.19141,3.6249 l 7.11894,-1.015212 c 3.77116,-0.646155 7.52369,-1.423901 11.33498,-1.76929 -3.69562,0.605372 -7.38157,1.259491 -11.05856,1.943208 -2.71694,0.506577 -5.42194,1.067306 -8.1075,1.693136 -1.78169,2.296057 -3.00756,5.2230894 -3.29632,8.7237245 3.84247,-0.650909 7.68041,-1.3276795 11.55376,-1.7919294 3.71826,-0.4456026 7.44414,-0.8160805 11.17629,-1.1161984 l -10.54082,1.8090434 c -4.06537,0.6705856 -8.16327,1.2164024 -12.23595,1.8633185 -0.0226,0.5429868 -0.0268,1.0975407 0,1.6659978 0.0679,1.7007199 0.28002,3.3503755 0.61036,4.947166 0.61437,-0.078006 1.22885,-0.156424 1.84292,-0.2337407 l 38.35393,-5.4331609 c 6.16465,-0.7405646 12.35852,-0.9750771 18.56845,-1.061522 l -44.94174,7.5667533 c -4.349,0.7234609 -8.70798,1.4046051 -13.04319,2.1757857 0.54254,1.7350713 1.22083,3.4022187 2.01097,4.9988752 1.94717,-0.2719409 3.89589,-0.5483791 5.84532,-0.8028254 11.15293,-1.4564411 22.28291,-2.9737301 33.52269,-3.6136998 L 194.26045,9.992944 c -3.42074,0.686279 -6.9658,1.187711 -10.24217,2.251682 0.91827,1.589834 1.94069,3.103524 3.03247,4.539507 2.63564,0.01492 5.26758,-0.310276 7.88274,-0.629422 l 15.90554,-2.29581 10.63611,-1.381954 10.13751,-0.325969 0.072,0 -4.60401,0.893386 -15.16881,2.421876 -6.54243,1.537092 -12.10773,3.496128 c -0.84037,0.231548 -1.73096,0.360958 -2.61547,0.502851 1.07788,1.138448 2.18345,2.212319 3.29643,3.219422 l 17.15641,0.03571 14.78197,0.02768 c 0.73982,-0.669042 1.47995,-1.365489 2.20856,-2.092943 l -16.97663,-0.145227 -14.21565,-0.11809 2.95106,-0.887603 6.28722,-1.669342 6.32035,-1.447951 c 7.35378,-1.350958 14.84824,-2.074028 22.15056,-3.629654 1.0677,-1.620069 2.03372,-3.327355 2.8603,-5.1199223 -1.94573,0.025831 -3.91801,0.2059446 -5.85407,0.2460797 -7.14003,0.1494775 -14.23736,0.7898386 -21.31657,1.6431006 l -15.83978,2.204981 -1.24852,0.137519 1.79507,-0.440848 13.62638,-2.350476 27.28848,-3.7770703 2.6732,-0.4028947 c 0.50138,-1.3900639 0.91127,-2.8270755 1.22011,-4.3075771 -0.14068,7.718e-4 -0.28002,0.00103 -0.41977,0.00103 -5.86775,0.044869 -11.74775,-0.052484 -17.61551,0.046721 l 1.34258,-0.2168839 17.16238,-2.80675069 c 0.072,-0.66647941 0.12422,-1.34105791 0.15087,-2.02450721 0.17587,-4.4252861 -1.07017,-8.0712711 -3.11294,-10.8452251 -5.08635,-0.223449 -10.1939,-0.142922 -15.28695,-0.05907 -2.9809,0.04929 -5.95821,0.135718 -8.93304,0.261526"
           id="path3718"
           style="fill:#e31f24;fill-opacity:1;fill-rule:nonzero;stroke:none" />
        <path
           d="m 219.17807,-18.50311 c -2.68236,1.531823 -4.54648,3.175695 -5.86425,4.726042 l 21.62449,-2.499953 c -2.84177,-2.439113 -6.42172,-3.725876 -9.83732,-3.725876 -2.10802,-7.72e-4 -4.15193,0.488949 -5.92292,1.499787"
           id="path3720"
           style="fill:#e31f24;fill-opacity:1;fill-rule:nonzero;stroke:none" />
      </g>
      <g
         transform="translate(3.7905,13.008)"
         id="text4239"
         style="font-size:64px;font-style:normal;font-weight:bold;line-height:125%;letter-spacing:0px;word-spacing:0px;fill:#ffffff;fill-opacity:1;stroke:none;font-family:Exo 2;-inkscape-font-specification:Exo 2 Bold">
        <path
           d="m 9.1185008,-29.461817 0,26.5600001 c -3.95e-5,6.7413442 -1.3013715,11.4986727 -3.904,14.2719999 -2.560033,2.773334 -6.9973619,4.159999 -13.312,4.16 -6.6560158,-10e-7 -11.3493438,-1.386666 -14.0799998,-4.16 -2.688006,-2.7733272 -4.032004,-7.5306557 -4.032,-14.2719999 l 0,-26.5600001 9.728,0 0,26.5600001 c -1.4e-5,4.0533468 0.554652,6.8266774 1.664,8.32 1.151983,1.4933411 3.242648,2.240007 6.2719998,2.24 2.9866418,7e-6 5.0346398,-0.7466589 6.144,-2.24 1.1519709,-1.4933226 1.7279703,-4.2666532 1.72799999,-8.32 l 0,-26.5600001 9.79200001,0"
           id="path4289"
           style="fill:#ffffff" />
        <path
           d="m 26.631501,-30.101817 0,34.4960001 c -1.4e-5,2.1333415 1.194652,3.2000071 3.584,3.2 l 2.56,0 1.088,6.5919999 c -1.621353,0.853333 -4.138683,1.279999 -7.552,1.28 -2.81601,-10e-7 -5.034675,-0.746667 -6.656,-2.24 -1.621338,-1.535997 -2.432004,-3.6906614 -2.432,-6.4639999 l 0,-36.8640001 9.408,0"
           id="path4291"
           style="fill:#ffffff" />
        <path
           d="m 49.572501,-10.517817 0,14.9120001 c -1.6e-5,1.1946757 0.255983,2.0266749 0.768,2.496 0.511982,0.4693406 1.407981,0.7040071 2.688,0.704 l 4.032,0 1.024,6.5919999 c -2.432022,0.853333 -5.397353,1.279999 -8.896,1.28 -2.85868,-10e-7 -5.077344,-0.789333 -6.656,-2.368 -1.578674,-1.62133 -2.368007,-3.8613278 -2.368,-6.7199999 l 0,-16.8960001 -5.568,0 0,-6.016 5.568,-0.32 0,-8.832 9.408,0 0,8.832 8.768,0 0,6.336 -8.768,0"
           id="path4293"
           style="fill:#ffffff" />
        <path
           d="m 66.350501,-30.805817 4.224,0 c 1.834654,4.6e-5 2.751986,0.917378 2.752,2.752 l 0,3.456 c -1.4e-5,1.834704 -0.917346,2.752037 -2.752,2.752 l -4.224,0 c -1.834672,3.7e-5 -2.752004,-0.917296 -2.752,-2.752 l 0,-3.456 c -4e-6,-1.834622 0.917328,-2.751954 2.752,-2.752 m 6.848,45.504 -9.408,0 0,-31.552 9.408,0 0,31.552"
           id="path4295"
           style="fill:#ffffff" />
        <path
           d="m 88.711501,-16.853817 0.64,4.608 c 4.01065,-3.669303 8.021313,-5.503967 12.031999,-5.504 4.26664,3.3e-5 6.97597,1.706697 8.128,5.12 3.71196,-3.413303 7.55196,-5.119967 11.52,-5.12 2.85862,3.3e-5 5.03462,0.746698 6.528,2.24 1.49328,1.493362 2.23995,3.66936 2.24,6.5280001 l 0,23.6799999 -9.408,0 0,-20.7359999 c -4e-5,-1.3653113 -0.23471,-2.3253103 -0.704,-2.88 -0.46937,-0.5546425 -1.34404,-0.8319756 -2.624,-0.832 -1.02404,2.44e-5 -2.00537,0.1920242 -2.944,0.576 -0.9387,0.3840234 -2.30403,1.1306894 -4.096,2.24 l 0,21.6319999 -9.088,0 0,-20.7359999 c -2e-5,-1.3653113 -0.27736,-2.3253103 -0.832,-2.88 -0.512022,-0.5546425 -1.365354,-0.8319756 -2.559999,-0.832 -1.664019,2.44e-5 -3.98935,0.9173568 -6.976,2.752 l 0,21.6959999 -9.408,0 0,-31.552 7.552,0"
           id="path4297"
           style="fill:#ffffff" />
        <path
           d="m 138.2415,-9.8138169 -0.896,-6.4000001 c 5.67466,-1.023968 11.15732,-1.535967 16.448,-1.536 4.26664,3.3e-5 7.40264,0.874698 9.408,2.624 2.0053,1.706695 3.00797,4.693359 3.008,8.9600001 l 0,20.8639999 -7.488,0 -0.96,-4.7999999 c -3.15735,3.7120009 -7.04002,5.5679989 -11.648,5.5679999 -3.02934,-10e-7 -5.50401,-0.789333 -7.424,-2.368 -1.92,-1.62133 -2.88,-3.8613278 -2.88,-6.7199999 l 0,-3.2 c 0,-2.51731934 0.85333,-4.479984 2.56,-5.888 1.70666,-1.4079812 4.07466,-2.1119805 7.104,-2.112 l 11.264,0 0,-1.408 c -0.0427,-1.6213108 -0.42669,-2.7093097 -1.152,-3.264 -0.68269,-0.5546421 -2.02669,-0.8319751 -4.032,-0.8320001 -3.49868,2.5e-5 -7.93601,0.170692 -13.312,0.5120001 m 6.912,13.696 0,1.216 c -1e-5,2.1760074 1.23732,3.2640063 3.712,3.264 2.55998,6.3e-6 5.18398,-1.0239927 7.872,-3.072 l 0,-4.41600004 -8.512,0 c -2.04801,0.0426804 -3.07201,1.04534614 -3.072,3.00800004"
           id="path4299"
           style="fill:#ffffff" />
      </g>
      <g
         transform="translate(-4.352,6.6879996)"
         id="text4243"
         style="font-size:64px;font-style:normal;font-weight:bold;line-height:125%;letter-spacing:0px;word-spacing:0px;fill:#ffffff;fill-opacity:1;stroke:none;font-family:Exo 2;-inkscape-font-specification:Exo 2 Bold">
        <path
           d="m 264.08,-21.797817 0,32.96 c -10e-6,1.15201 0.25599,1.984009 0.768,2.496 0.55465,0.512008 1.45065,0.768008 2.688,0.768 l 15.168,0 0.448,7.424 c -4.30936,0.469333 -10.53869,0.703999 -18.688,0.704 -3.41334,-10e-7 -5.95201,-0.853333 -7.616,-2.56 -1.66401,-1.706663 -2.496,-3.989327 -2.496,-6.848 l 0,-34.944 9.728,0"
           id="path4274"
           style="fill:#ffffff" />
        <path
           d="m 290.72,-23.141817 4.224,0 c 1.83465,4.5e-5 2.75199,0.917378 2.752,2.752 l 0,3.456 c -1e-5,1.834704 -0.91735,2.752036 -2.752,2.752 l -4.224,0 c -1.83467,3.6e-5 -2.752,-0.917296 -2.752,-2.752 l 0,-3.456 c 0,-1.834622 0.91733,-2.751955 2.752,-2.752 m 6.848,45.504 -9.408,0 0,-31.5520004 9.408,0 0,31.5520004"
           id="path4276"
           style="fill:#ffffff" />
        <path
           d="m 314.937,-22.437817 0,10.048 c -1e-5,2.9440314 -0.27735,5.4186956 -0.832,7.4239996 3.32798,-3.4133026 7.06131,-5.1199676 11.2,-5.1199996 4.09597,3.2e-5 7.03997,1.2800308 8.832,3.8399996 1.83463,2.5173594 2.75196,6.69868859 2.752,12.544 -4e-5,5.4186774 -1.10937,9.5786734 -3.328,12.4800004 -2.2187,2.901334 -6.25069,4.351999 -12.096,4.352 -2.56002,-10e-7 -5.44001,-0.213334 -8.64,-0.64 -3.15734,-0.426667 -5.63201,-1.023999 -7.424,-1.792 l 0,-43.136 9.536,0 m -0.064,22.59199962 0,15.36000038 c 2.17598,0.469339 4.30932,0.661339 6.4,0.576 2.17598,-0.08533 3.69064,-0.81066 4.544,-2.176 0.89597,-1.365324 1.34397,-3.882655 1.344,-7.5520004 -3e-5,-3.4986472 -0.36269,-5.84531147 -1.088,-7.03999998 -0.72536,-1.23730902 -2.24002,-1.85597512 -4.544,-1.85600002 -1.74935,2.49e-5 -3.96802,0.896024 -6.656,2.68800002"
           id="path4278"
           style="fill:#ffffff" />
        <path
           d="m 363.5,9.7541826 -11.392,0 c 0.29865,2.3040104 0.98132,3.8613424 2.048,4.6720004 1.10932,0.768007 2.92265,1.152006 5.44,1.152 3.37064,6e-6 7.29597,-0.23466 11.776,-0.704 l 0.896,5.888 c -3.28536,1.578666 -7.87202,2.367999 -13.76,2.368 -5.93068,-10e-7 -10.15468,-1.28 -12.672,-3.84 -2.51734,-2.559995 -3.776,-6.783991 -3.776,-12.6720004 0,-6.18664472 1.216,-10.5173071 3.648,-12.992 2.47466,-2.4746354 6.61332,-3.7119676 12.416,-3.7119996 5.24798,3.2e-5 9.04531,0.9173645 11.392,2.7519996 2.34663,1.7920279 3.5413,4.5440252 3.584,8.25600002 -3e-5,2.94401848 -0.76803,5.16268298 -2.304,6.65599998 -1.49336,1.45068 -3.92536,2.1760126 -7.296,2.176 m -11.584,-5.696 8.96,0 c 1.15198,1.83e-5 1.91998,-0.2773147 2.304,-0.832 0.42664,-0.554647 0.63998,-1.3653128 0.64,-2.43199998 -2e-5,-1.49331027 -0.38402,-2.51730922 -1.152,-3.07200002 -0.76802,-0.5973081 -2.17602,-0.8959744 -4.224,-0.896 -2.43202,2.56e-5 -4.09601,0.4906917 -4.992,1.472 -0.89601,0.93868981 -1.40801,2.8586879 -1.536,5.76"
           id="path4280"
           style="fill:#ffffff" />
        <path
           d="m 401.935,-10.085817 -0.96,8.7679996 -2.56,0 c -2.09069,2.37e-5 -5.31202,0.72535631 -9.664,2.17600002 l 0,21.50400038 -9.472,0 0,-31.5520004 7.36,0 0.832,4.608 c 4.30932,-3.6693027 8.57598,-5.5039676 12.8,-5.5039996 l 1.664,0"
           id="path4282"
           style="fill:#ffffff" />
        <path
           d="m 418.817,-2.8538174 0,14.9120004 c -2e-5,1.194675 0.25598,2.026675 0.768,2.496 0.51198,0.46934 1.40798,0.704007 2.688,0.704 l 4.032,0 1.024,6.592 c -2.43202,0.853333 -5.39735,1.279999 -8.896,1.28 -2.85868,-10e-7 -5.07734,-0.789334 -6.656,-2.368 -1.57867,-1.62133 -2.36801,-3.861328 -2.368,-6.72 l 0,-16.8960004 -5.568,0 0,-6.016 5.568,-0.32 0,-8.8319996 9.408,0 0,8.8319996 8.768,0 0,6.336 -8.768,0"
           id="path4284"
           style="fill:#ffffff" />
        <path
           d="m 448.779,-12.197817 -14.4,-7.04 4.288,-6.528 12.928,9.472 -2.816,4.096 m -15.168,10.0479996 -0.896,-6.4 c 5.67466,-1.023968 11.15732,-1.5359676 16.448,-1.5359996 4.26664,3.2e-5 7.40264,0.8746979 9.408,2.6239996 2.0053,1.7066948 3.00797,4.6933585 3.008,8.96 l 0,20.8640004 -7.488,0 -0.96,-4.8 c -3.15735,3.712001 -7.04002,5.567999 -11.648,5.568 -3.02934,-10e-7 -5.50401,-0.789334 -7.424,-2.368 -1.92,-1.62133 -2.88,-3.861328 -2.88,-6.72 l 0,-3.2 c 0,-2.5173197 0.85333,-4.4799844 2.56,-5.8880004 1.70666,-1.4079812 4.07466,-2.1119805 7.104,-2.112 l 11.264,0 0,-1.408 c -0.0427,-1.62131077 -0.42669,-2.7093097 -1.152,-3.264 -0.68269,-0.5546419 -2.02669,-0.831975 -4.032,-0.832 -3.49868,2.5e-5 -7.93601,0.1706915 -13.312,0.512 m 6.912,13.6960004 0,1.216 c -1e-5,2.176007 1.23732,3.264006 3.712,3.264 2.55998,6e-6 5.18398,-1.023993 7.872,-3.072 l 0,-4.4160004 -8.512,0 c -2.04801,0.04268 -3.07201,1.0453461 -3.072,3.0080004"
           id="path4286"
           style="fill:#ffffff" />
      </g>
    </g>
  </g>
</svg>
