<?xml version="1.0" encoding="UTF-8" standalone="no"?>
<!-- Created with Inkscape (http://www.inkscape.org/) -->

<svg
   xmlns:dc="http://purl.org/dc/elements/1.1/"
   xmlns:cc="http://creativecommons.org/ns#"
   xmlns:rdf="http://www.w3.org/1999/02/22-rdf-syntax-ns#"
   xmlns:svg="http://www.w3.org/2000/svg"
   xmlns="http://www.w3.org/2000/svg"
   xmlns:sodipodi="http://sodipodi.sourceforge.net/DTD/sodipodi-0.dtd"
   xmlns:inkscape="http://www.inkscape.org/namespaces/inkscape"
   version="1.1"
   width="50"
   height="50"
   id="svg3764"
   inkscape:version="0.48.4 r9939"
   sodipodi:docname="no.svg">
  <sodipodi:namedview
     pagecolor="#ffffff"
     bordercolor="#666666"
     borderopacity="1"
     objecttolerance="10"
     gridtolerance="10"
     guidetolerance="10"
     inkscape:pageopacity="0"
     inkscape:pageshadow="2"
     inkscape:window-width="1366"
     inkscape:window-height="744"
     id="namedview9"
     showgrid="false"
     fit-margin-top="0"
     fit-margin-left="0"
     fit-margin-right="0"
     fit-margin-bottom="0"
     inkscape:zoom="2.36"
     inkscape:cx="50.847424"
     inkscape:cy="50.000008"
     inkscape:window-x="0"
     inkscape:window-y="0"
     inkscape:window-maximized="1"
     inkscape:current-layer="svg3764" />
  <defs
     id="defs3766" />
  <metadata
     id="metadata3769">
    <rdf:RDF>
      <cc:Work
         rdf:about="">
        <dc:format>image/svg+xml</dc:format>
        <dc:type
           rdf:resource="http://purl.org/dc/dcmitype/StillImage" />
        <dc:title />
      </cc:Work>
    </rdf:RDF>
  </metadata>
  <g
     transform="matrix(0.50000001,0,0,0.50000001,-307.85714,-375.46683)"
     id="layer1">
    <g
       transform="matrix(2.5000281,0,0,-2.5000281,2160.3757,2525.5979)"
       id="g3714">
      <path
         d="m -583.7158,704 c 7.8103,-7.8103 7.8103,-20.4738 0,-28.2841 -7.8103,-7.8103 -20.4738,-7.8103 -28.2841,0 -7.8103,7.8103 -7.8103,20.4738 0,28.2841 7.8103,7.8103 20.4738,7.8103 28.2841,0"
         id="path3706"
         style="fill:#dc0000;fill-opacity:1;fill-rule:evenodd;stroke:none"
         inkscape:connector-curvature="0" />
      <path
         d="m -606.3899,689.7139 -1.1041,2.952 -0.1199,0 0.3838,-2.9041 0,-8.3038 -2.8559,0 0,16.92 2.3281,0 4.8237,-8.4481 1.0321,-2.9038 0.144,0 -0.3841,2.8559 0,8.3758 2.8562,0 0,-16.9197 -2.3281,0 -4.7758,8.3758 z m 8.8798,0.144 c 0,2.848 0.4881,5.0159 1.4641,6.5041 0.976,1.4879 2.4639,2.232 4.464,2.232 1.04,0 1.9361,-0.2041 2.6878,-0.612 0.7521,-0.4082 1.368,-0.9921 1.8482,-1.7521 0.4799,-0.7599 0.836,-1.6801 1.0678,-2.7601 0.2322,-1.08 0.3481,-2.2838 0.3481,-3.6119 0,-2.8479 -0.5,-5.0159 -1.5001,-6.5038 -0.9998,-1.4882 -2.484,-2.232 -4.4518,-2.232 -1.0559,0 -1.9559,0.2038 -2.7,0.612 -0.7441,0.4079 -1.3561,0.9919 -1.836,1.7518 -0.4799,0.76 -0.832,1.6801 -1.0559,2.7601 -0.2242,1.08 -0.3362,2.2839 -0.3362,3.6119 z m 3.168,0 c 0,-0.8478 0.0482,-1.6359 0.144,-2.3641 0.0961,-0.7279 0.256,-1.3558 0.4802,-1.8839 0.2239,-0.5278 0.508,-0.9439 0.8518,-1.2478 0.3441,-0.3041 0.7722,-0.4561 1.2841,-0.4561 0.9281,0 1.624,0.472 2.088,1.4159 0.464,0.944 0.6959,2.456 0.6959,4.536 0,0.8161 -0.0479,1.588 -0.144,2.3159 -0.0961,0.7282 -0.252,1.3601 -0.468,1.8961 -0.216,0.5361 -0.5,0.9601 -0.8521,1.2719 -0.3518,0.3121 -0.792,0.468 -1.3198,0.468 -1.84,0 -2.7601,-1.9839 -2.7601,-5.9519"
         id="path3708"
         style="fill:#ffffff;fill-opacity:1;fill-rule:nonzero;stroke:none"
         inkscape:connector-curvature="0" />
    </g>
  </g>
</svg>
