<?xml version="1.0" encoding="UTF-8" standalone="no"?>
<!-- Created with Inkscape (http://www.inkscape.org/) -->

<svg
   xmlns:dc="http://purl.org/dc/elements/1.1/"
   xmlns:cc="http://creativecommons.org/ns#"
   xmlns:rdf="http://www.w3.org/1999/02/22-rdf-syntax-ns#"
   xmlns:svg="http://www.w3.org/2000/svg"
   xmlns="http://www.w3.org/2000/svg"
   version="1.1"
   width="50"
   height="50"
   id="svg4477">
  <defs
     id="defs4479" />
  <metadata
     id="metadata4482">
    <rdf:RDF>
      <cc:Work
         rdf:about="">
        <dc:format>image/svg+xml</dc:format>
        <dc:type
           rdf:resource="http://purl.org/dc/dcmitype/StillImage" />
        <dc:title></dc:title>
      </cc:Work>
    </rdf:RDF>
  </metadata>
  <g
     transform="translate(-546.42857,-775.9336)"
     id="layer1">
    <g
       transform="translate(1155.1786,228.5714)"
       id="g4531">
      <path
         d="m -566.07224,554.68444 c 9.76299,9.76298 9.76299,25.59254 0,35.35552 -9.76298,9.76299 -25.59254,9.76299 -35.35552,0 -9.76299,-9.76298 -9.76299,-25.59253 0,-35.35552 9.76298,-9.76298 25.59254,-9.76298 35.35552,0"
         id="path4118"
         style="fill:#33cc33;fill-opacity:1;fill-rule:evenodd;stroke:none" />
      <path
         d="m -597.5,558.61221 0,27.5 27.5,0 0,-22.92188 -4.57813,-4.57812 -2.45312,0 0,7.5 -13.75,0 0,-7.5 -6.71875,0 z m 13.75,10 c 2.07077,0 3.75,1.67885 3.75,3.75 0,2.07064 -1.67923,3.75 -3.75,3.75 -2.07077,0 -3.75,-1.67936 -3.75,-3.75 0,-2.07115 1.67923,-3.75 3.75,-3.75 z"
         id="path4120"
         style="fill:#ffffff;fill-opacity:1;fill-rule:evenodd;stroke:none" />
    </g>
  </g>
</svg>
